<?xml version="1.0" encoding="utf-8"?>
<!-- Generator: Adobe Illustrator 27.5.0, SVG Export Plug-In . SVG Version: 6.00 Build 0)  -->
<svg version="1.1" xmlns="http://www.w3.org/2000/svg" xmlns:xlink="http://www.w3.org/1999/xlink" x="0px" y="0px"
	 viewBox="0 0 500 500" style="enable-background:new 0 0 500 500;" xml:space="preserve">
<g id="BACKGROUND">
	<rect style="fill:#F2F5F4;" width="500" height="500"/>
</g>
<g id="OBJECTS">
	<g>
		<path style="fill:#F2F5F4;" d="M331.632,155.339H28.994c-7.633,0-13.821,6.188-13.821,13.821v233.847
			c0,7.633,6.188,13.821,13.821,13.821h302.638c7.633,0,13.821-6.188,13.821-13.821V169.16
			C345.453,161.527,339.265,155.339,331.632,155.339z"/>
		<g>
			<path style="fill:#FFFFFF;stroke:#F2F5F4;stroke-miterlimit:10;" d="M346.914,138.701H44.276
				c-7.633,0-13.821,6.188-13.821,13.821v233.847c0,7.633,6.188,13.821,13.821,13.821h302.638c7.633,0,13.821-6.188,13.821-13.821
				V152.521C360.735,144.888,354.547,138.701,346.914,138.701z"/>
			<path style="fill:#F2F5F4;" d="M346.914,144.535H44.276c-7.633,0-13.821,6.188-13.821,13.821v10.732h330.279v-10.732
				C360.735,150.723,354.547,144.535,346.914,144.535z"/>
			<path style="fill:#FFFFFF;" d="M346.914,138.701H44.276c-7.633,0-13.821,6.188-13.821,13.821v10.732h330.279v-10.732
				C360.735,144.888,354.547,138.701,346.914,138.701z"/>
			<circle style="fill:#D57548;" cx="47.435" cy="150.977" r="4.175"/>
			<path style="fill:#FFB72F;" d="M68.25,150.977c0,2.306-1.869,4.176-4.175,4.176c-2.306,0-4.175-1.87-4.175-4.176
				c0-2.306,1.869-4.175,4.175-4.175C66.38,146.801,68.25,148.671,68.25,150.977z"/>
			<path style="fill:#AABC95;" d="M84.889,150.977c0,2.306-1.869,4.176-4.175,4.176s-4.175-1.87-4.175-4.176
				c0-2.306,1.869-4.175,4.175-4.175S84.889,148.671,84.889,150.977z"/>
		</g>
		<g>
			
				<line style="fill:none;stroke:#F2F5F4;stroke-width:5;stroke-linecap:round;stroke-linejoin:round;stroke-miterlimit:10;" x1="260.125" y1="184.376" x2="323.802" y2="184.376"/>
			
				<line style="fill:none;stroke:#F2F5F4;stroke-width:5;stroke-linecap:round;stroke-linejoin:round;stroke-miterlimit:10;" x1="260.125" y1="196.728" x2="323.802" y2="196.728"/>
			
				<line style="fill:none;stroke:#F2F5F4;stroke-width:5;stroke-linecap:round;stroke-linejoin:round;stroke-miterlimit:10;" x1="260.125" y1="209.08" x2="323.802" y2="209.08"/>
			
				<line style="fill:none;stroke:#F2F5F4;stroke-width:5;stroke-linecap:round;stroke-linejoin:round;stroke-miterlimit:10;" x1="260.125" y1="221.432" x2="323.802" y2="221.432"/>
			
				<line style="fill:none;stroke:#F2F5F4;stroke-width:5;stroke-linecap:round;stroke-linejoin:round;stroke-miterlimit:10;" x1="260.125" y1="233.784" x2="323.802" y2="233.784"/>
			
				<line style="fill:none;stroke:#F2F5F4;stroke-width:5;stroke-linecap:round;stroke-linejoin:round;stroke-miterlimit:10;" x1="55.134" y1="258.488" x2="323.802" y2="258.488"/>
			
				<line style="fill:none;stroke:#F2F5F4;stroke-width:5;stroke-linecap:round;stroke-linejoin:round;stroke-miterlimit:10;" x1="55.134" y1="270.84" x2="323.802" y2="270.84"/>
			
				<line style="fill:none;stroke:#F2F5F4;stroke-width:5;stroke-linecap:round;stroke-linejoin:round;stroke-miterlimit:10;" x1="55.134" y1="283.192" x2="323.802" y2="283.192"/>
			
				<line style="fill:none;stroke:#F2F5F4;stroke-width:5;stroke-linecap:round;stroke-linejoin:round;stroke-miterlimit:10;" x1="55.134" y1="295.544" x2="323.802" y2="295.544"/>
			
				<line style="fill:none;stroke:#F2F5F4;stroke-width:5;stroke-linecap:round;stroke-linejoin:round;stroke-miterlimit:10;" x1="55.134" y1="307.896" x2="323.802" y2="307.896"/>
			
				<line style="fill:none;stroke:#F2F5F4;stroke-width:5;stroke-linecap:round;stroke-linejoin:round;stroke-miterlimit:10;" x1="168.945" y1="327.828" x2="265" y2="327.828"/>
			
				<line style="fill:none;stroke:#F2F5F4;stroke-width:5;stroke-linecap:round;stroke-linejoin:round;stroke-miterlimit:10;" x1="168.945" y1="340.18" x2="265" y2="340.18"/>
			
				<line style="fill:none;stroke:#F2F5F4;stroke-width:5;stroke-linecap:round;stroke-linejoin:round;stroke-miterlimit:10;" x1="168.945" y1="352.532" x2="265" y2="352.532"/>
			
				<line style="fill:none;stroke:#F2F5F4;stroke-width:5;stroke-linecap:round;stroke-linejoin:round;stroke-miterlimit:10;" x1="168.945" y1="364.884" x2="236.092" y2="364.884"/>
			
				<line style="fill:none;stroke:#F2F5F4;stroke-width:5;stroke-linecap:round;stroke-linejoin:round;stroke-miterlimit:10;" x1="168.945" y1="377.236" x2="236.092" y2="377.236"/>
			<g>
				
					<ellipse transform="matrix(0.2265 -0.974 0.974 0.2265 -37.9977 373.733)" style="fill:none;stroke:#F2F5F4;stroke-width:5;stroke-linecap:round;stroke-linejoin:round;stroke-miterlimit:10;" cx="216.299" cy="210.789" rx="33.883" ry="33.883"/>
				
					<polyline style="fill:none;stroke:#F2F5F4;stroke-width:5;stroke-linecap:round;stroke-linejoin:round;stroke-miterlimit:10;" points="
					216.299,176.907 216.299,210.789 241.177,233.784 				"/>
			</g>
			<g>
				
					<ellipse transform="matrix(0.2265 -0.974 0.974 0.2265 -276.5963 359.1151)" style="fill:none;stroke:#F2F5F4;stroke-width:5;stroke-linecap:round;stroke-linejoin:round;stroke-miterlimit:10;" cx="87.797" cy="353.7" rx="33.883" ry="33.883"/>
				
					<polyline style="fill:none;stroke:#F2F5F4;stroke-width:5;stroke-linecap:round;stroke-linejoin:round;stroke-miterlimit:10;" points="
					87.797,319.817 87.797,353.7 112.675,376.694 				"/>
			</g>
			
				<rect x="274.737" y="324.237" style="fill:none;stroke:#F2F5F4;stroke-width:5;stroke-linecap:round;stroke-linejoin:round;stroke-miterlimit:10;" width="61.073" height="54.196"/>
			
				<polygon style="fill:none;stroke:#F2F5F4;stroke-width:5;stroke-linecap:round;stroke-linejoin:round;stroke-miterlimit:10;" points="
				53.931,183.691 109.591,237.888 53.931,237.888 			"/>
		</g>
	</g>
	<g>
		<g>
			<g>
				<path style="fill:#F2F5F4;" d="M451.317,132.326H320.796c-7.633,0-13.821,6.188-13.821,13.821v77.352
					c0,7.633,6.188,13.821,13.821,13.821h130.522c7.633,0,13.821-6.188,13.821-13.821v-77.352
					C465.138,138.513,458.951,132.326,451.317,132.326z"/>
				<g>
					<path style="fill:#FFFFFF;stroke:#F1F1F3;stroke-miterlimit:10;" d="M463.608,121.673H333.087
						c-7.633,0-13.821,6.188-13.821,13.821v77.352c0,7.633,6.188,13.821,13.821,13.821h130.522c7.633,0,13.821-6.188,13.821-13.821
						v-77.352C477.429,127.86,471.241,121.673,463.608,121.673z"/>
					<path style="fill:#F2F5F4;" d="M463.608,127.507H333.087c-7.633,0-13.821,6.188-13.821,13.821v10.732h158.163v-10.732
						C477.429,133.695,471.241,127.507,463.608,127.507z"/>
					<path style="fill:#FFFFFF;stroke:#F1F1F3;stroke-miterlimit:10;" d="M463.608,121.673H333.087
						c-7.633,0-13.821,6.188-13.821,13.821v10.732h158.163v-10.732C477.429,127.86,471.241,121.673,463.608,121.673z"/>
					<g>
						
							<line style="fill:none;stroke:#E3E9E7;stroke-width:5;stroke-linecap:round;stroke-linejoin:round;stroke-miterlimit:10;" x1="388.143" y1="133.949" x2="409.361" y2="133.949"/>
						
							<line style="fill:none;stroke:#E3E9E7;stroke-width:5;stroke-linecap:round;stroke-linejoin:round;stroke-miterlimit:10;" x1="419.323" y1="133.949" x2="462.426" y2="133.949"/>
					</g>
					<path style="fill:#D57548;" d="M340.422,133.949c0,2.306-1.869,4.175-4.175,4.175s-4.176-1.869-4.176-4.175
						s1.87-4.175,4.176-4.175S340.422,131.643,340.422,133.949z"/>
					<path style="fill:#FFB72F;" d="M357.061,133.949c0,2.306-1.87,4.175-4.176,4.175s-4.175-1.869-4.175-4.175
						s1.869-4.175,4.175-4.175S357.061,131.643,357.061,133.949z"/>
					<path style="fill:#AABC95;" d="M373.7,133.949c0,2.306-1.869,4.175-4.175,4.175c-2.306,0-4.175-1.869-4.175-4.175
						s1.869-4.175,4.175-4.175C371.83,129.774,373.7,131.643,373.7,133.949z"/>
				</g>
			</g>
		</g>
		<g>
			<path style="fill:none;stroke:#EAA105;stroke-miterlimit:10;" d="M342.09,201.072c30.303-33.16,60.168,0,60.168,0
				c31.316-34.403,60.168,0,60.168,0"/>
			<g>
				<line style="fill:none;stroke:#450000;stroke-miterlimit:10;" x1="342.09" y1="201.072" x2="462.426" y2="201.072"/>
				<line style="fill:none;stroke:#450000;stroke-miterlimit:10;" x1="462.426" y1="194.684" x2="462.426" y2="204.753"/>
				<line style="fill:none;stroke:#450000;stroke-miterlimit:10;" x1="342.09" y1="194.684" x2="342.09" y2="204.753"/>
			</g>
			<path style="fill:none;stroke:#450000;stroke-miterlimit:10;" d="M463.721,184.739h-2.591c-0.907,0-1.643,0.736-1.643,1.643
				v2.591c0,0.907,0.735,1.643,1.643,1.643h2.591c0.907,0,1.643-0.735,1.643-1.643v-2.591
				C465.364,185.474,464.629,184.739,463.721,184.739z"/>
			<path style="fill:none;stroke:#450000;stroke-miterlimit:10;" d="M343.385,184.739h-2.591c-0.907,0-1.643,0.736-1.643,1.643
				v2.591c0,0.907,0.735,1.643,1.643,1.643h2.591c0.907,0,1.643-0.735,1.643-1.643v-2.591
				C345.028,185.474,344.293,184.739,343.385,184.739z"/>
			<path style="fill:none;stroke:#450000;stroke-miterlimit:10;" d="M403.553,205.383h-2.591c-0.907,0-1.643,0.735-1.643,1.643
				v2.591c0,0.907,0.736,1.643,1.643,1.643h2.591c0.907,0,1.643-0.735,1.643-1.643v-2.591
				C405.196,206.119,404.461,205.383,403.553,205.383z"/>
			<circle style="fill:none;stroke:#C43F00;stroke-miterlimit:10;" cx="402.258" cy="208.322" r="8.803"/>
			<g>
				<g>
					<path style="fill:#AABC95;" d="M344.357,175.452l-1.217-1.882l-1.182,1.871c-0.217,0.344-0.596,0.553-1.003,0.553h-0.523
						c-0.966,0-1.527-1.092-0.964-1.877l1.934-2.699l-1.849-2.63c-0.553-0.786,0.01-1.868,0.97-1.868h0.522
						c0.394,0,0.762,0.196,0.983,0.522l1.189,1.76l1.152-1.748c0.22-0.333,0.592-0.533,0.99-0.533h0.341
						c0.966,0,1.527,1.094,0.963,1.879l-1.8,2.503l2.009,2.818c0.56,0.785-0.002,1.875-0.966,1.875h-0.553
						C344.951,175.994,344.576,175.79,344.357,175.452z"/>
				</g>
				<g>
					<path style="fill:#AABC95;" d="M366.323,172.701v2.106c0,0.655-0.531,1.186-1.186,1.186h-0.687
						c-0.655,0-1.186-0.531-1.186-1.186v-2.145l-2.354-3.949c-0.471-0.791,0.099-1.793,1.019-1.793h0.463
						c0.419,0,0.808,0.222,1.021,0.583l1.51,2.554l1.522-2.557c0.214-0.359,0.601-0.58,1.019-0.58h0.201c0.919,0,1.489,1,1.021,1.79
						L366.323,172.701z"/>
				</g>
				<g>
					<path style="fill:#AABC95;" d="M387.438,174.808L387.438,174.808c0,0.655-0.531,1.186-1.186,1.186h-5.709
						c-0.795,0-1.44-0.645-1.44-1.44l0,0c0-0.284,0.102-0.558,0.287-0.773l3.861-4.489h-2.832c-0.655,0-1.186-0.531-1.186-1.186l0,0
						c0-0.655,0.531-1.186,1.186-1.186h5.372c0.795,0,1.44,0.645,1.44,1.44l0,0c0,0.284-0.102,0.558-0.287,0.773l-3.861,4.489h3.169
						C386.907,173.622,387.438,174.153,387.438,174.808z"/>
				</g>
				<g>
					<g>
						<path style="fill:#AABC95;" d="M357.571,170.834h-5.141c-0.506,0-0.917-0.41-0.917-0.917v-0.728
							c0-0.506,0.41-0.917,0.917-0.917h5.141c0.506,0,0.917,0.41,0.917,0.917v0.728
							C358.487,170.423,358.077,170.834,357.571,170.834z"/>
					</g>
					<g>
						<path style="fill:#AABC95;" d="M357.571,174.962h-5.141c-0.506,0-0.917-0.41-0.917-0.917v-0.728
							c0-0.506,0.41-0.917,0.917-0.917h5.141c0.506,0,0.917,0.41,0.917,0.917v0.728
							C358.487,174.552,358.077,174.962,357.571,174.962z"/>
					</g>
				</g>
				<g>
					<g>
						<path style="fill:#AABC95;" d="M375.184,174.367l-3.635-3.635c-0.358-0.358-0.358-0.938,0-1.296l0.515-0.515
							c0.358-0.358,0.938-0.358,1.296,0l3.635,3.635c0.358,0.358,0.358,0.938,0,1.296l-0.515,0.515
							C376.122,174.725,375.542,174.725,375.184,174.367z"/>
					</g>
					<g>
						<path style="fill:#AABC95;" d="M371.549,172.556l3.635-3.635c0.358-0.358,0.938-0.358,1.296,0l0.515,0.515
							c0.358,0.358,0.358,0.938,0,1.296l-3.635,3.635c-0.358,0.358-0.938,0.358-1.296,0l-0.515-0.515
							C371.191,173.494,371.191,172.914,371.549,172.556z"/>
					</g>
				</g>
			</g>
			<g>
				
					<line style="fill:none;stroke:#E3E9E7;stroke-width:5;stroke-linecap:round;stroke-linejoin:round;stroke-miterlimit:10;" x1="398.348" y1="167.213" x2="462.426" y2="167.213"/>
				
					<line style="fill:none;stroke:#E3E9E7;stroke-width:5;stroke-linecap:round;stroke-linejoin:round;stroke-miterlimit:10;" x1="398.348" y1="177.042" x2="430.387" y2="177.042"/>
			</g>
		</g>
	</g>
	<g>
		<path style="fill:#C43F00;" d="M219.426,367.422H105.904c-25.231-2.564-20.277-30.346,8.141-43.556
			c0.681-0.335,1.386-0.647,2.102-0.947l92.367-3.557c1.593,0.878,3.268,1.871,4.954,2.979c0.092,0.058,0.173,0.116,0.266,0.173
			C230.985,333.889,250.28,356.071,219.426,367.422z"/>
		<path d="M99.269,400.189h131.864c-8.491-44.537-25.15-68.252-25.15-68.252l-80.534-4.796
			C106.337,345.978,100.811,379.38,99.269,400.189z"/>
		<path style="fill:#B22900;" d="M269.935,302.007c-3.62,28.801-56.872,31.591-47.782-8.874L269.935,302.007z"/>
		<path style="fill:#B22900;" d="M265.727,289.914l-33.354,30.79c-10.885-11.256-51.256-70.643-58.824-98.406
			c-3.237-11.885,3.189-24.297,14.798-28.44c4.818-1.715,9.886-1.768,14.523-0.416c5.049,1.474,9.576,4.587,12.741,9.11
			L265.727,289.914z"/>
		<g>
			<path style="fill:#450000;" d="M310.71,227.505l-8.176,5.806c-1.738,1.235-4.148,0.826-5.383-0.912l-4.891-6.887
				c-1.234-1.738-0.826-4.148,0.912-5.383l8.176-5.806c1.738-1.234,4.148-0.826,5.383,0.912l4.891,6.887
				C312.857,223.86,312.449,226.27,310.71,227.505z"/>
			<path style="fill:#EFBFA9;" d="M328.351,220.737c-14.596,9.215-27.425,61.951-57.644,84.457
				c-1.698,1.259-3.476,2.263-5.289,3.037c-15.623,6.536-34.284-4.977-34.284-23.222l22.39-20.45l50.427-46.062L328.351,220.737z"/>
			<path style="fill:#ECB298;" d="M265.419,308.231c-15.623,6.536-34.284-4.977-34.284-23.222l22.39-20.45
				c-14.545,27.294-6.64,47.457,11.871,43.66C265.407,308.219,265.407,308.219,265.419,308.231z"/>
			<g>
				<path style="fill:#EFBFA9;" d="M303.953,218.492l-5.553,13.605c24.189,11.963,41.458,0.721,52.153-0.88l-14.149-28.673
					L303.953,218.492z"/>
				<path style="fill:#EFBFA9;" d="M345.121,215.46c-0.535,0.339-1.021,0.782-1.408,1.327c-0.105,0.15-0.198,0.292-0.283,0.447
					c-0.926,1.588-0.899,3.522-0.027,5.052c0.326,0.593,0.779,1.122,1.336,1.553l3.512,2.722l4.967,3.833
					c0.714,0.547,1.519,0.87,2.34,0.982c1.156,0.166,2.333-0.08,3.331-0.714c0.535-0.339,1.014-0.794,1.401-1.339
					c1.415-1.999,1.132-4.703-0.583-6.382l-0.008-0.012c-0.092-0.092-0.195-0.176-0.299-0.26l-8.274-6.835
					c-0.077-0.068-0.165-0.129-0.253-0.189C349.129,214.366,346.844,214.366,345.121,215.46z"/>
				<path style="fill:#EFBFA9;" d="M378.292,202.621c0.413-2.46-1.379-4.742-3.867-4.923l-21.438-1.558l-21.048,6.073l3.56,18.085
					l23.195-13.659l15.558-0.49C376.267,206.086,377.957,204.61,378.292,202.621z"/>
				<polygon style="fill:#E89076;" points="331.939,202.213 336.25,200.969 352.557,203.834 355.312,208.631 334.49,220.348 				"/>
				<path style="fill:#EFBFA9;" d="M356.105,238.079c-1.039,1.426-2.796,2.252-4.676,2.012l-10.64-1.434
					c-2.733-0.373-4.698-2.857-4.416-5.606c0.085-0.786,0.357-1.512,0.746-2.153c0.069-0.13,0.142-0.23,0.215-0.331
					c0.061-0.084,0.134-0.185,0.212-0.256c1.123-1.365,2.923-2.108,4.787-1.777l10.574,1.771c1.499,0.27,2.757,1.186,3.459,2.443
					c0.102,0.177,0.192,0.371,0.282,0.565c0.317,0.693,0.457,1.488,0.377,2.303C356.935,236.552,356.606,237.391,356.105,238.079z"
					/>
				<path style="fill:#E89076;" d="M356.367,232.749c-0.739,0.591-1.66,0.974-2.688,1.046l-10.688,0.817
					c-2.671,0.211-5.901-1.509-5.872-5.115c1.123-1.365,3.35-1.293,5.215-0.962l10.574,1.771
					C354.407,230.576,355.665,231.492,356.367,232.749z"/>
				<path style="fill:#E89076;" d="M352.843,227.657c-0.729,1.184-1.953,2.064-3.437,2.296l-7.321,1.006
					c-2.732,0.439-5.31-1.392-5.816-4.093c-0.211-1.202-0.016-2.35,0.519-3.337c0.037-0.099,0.102-0.206,0.156-0.294
					c0.794-1.29,2.115-2.208,3.726-2.41l7.367-0.685c1.262-0.149,2.49,0.192,3.454,0.883c1.01,0.695,1.735,1.775,1.994,3.056
					C353.745,225.36,353.485,226.614,352.843,227.657z"/>
				<path style="fill:#EFBFA9;" d="M338.856,224.422c-0.061,0.088-0.133,0.185-0.186,0.285c-0.077,0.115-0.134,0.235-0.199,0.343
					l0.008,0.012c-0.468,0.864-0.682,1.867-0.573,2.932c0.286,2.736,2.721,4.758,5.482,4.539l10.694-0.803
					c0.52-0.047,1.015-0.161,1.476-0.354c0.863-0.348,1.606-0.936,2.138-1.674c0.721-0.991,1.077-2.217,0.918-3.517
					c-0.101-0.736-0.34-1.402-0.705-2.003c-0.287-0.452-0.645-0.858-1.059-1.195c-0.901-0.762-2.098-1.203-3.364-1.149l-10.085,0.45
					l-0.649,0.028C341.135,222.391,339.75,223.204,338.856,224.422z"/>
				<path style="fill:#E89076;" d="M343.494,222.228l-0.649,0.028c-1.618,0.077-3.003,0.889-3.897,2.107
					c-0.061,0.088-0.133,0.185-0.186,0.285c-0.077,0.115-0.134,0.235-0.199,0.343l0.008,0.012c1.073,1.953,3.373,3.028,5.646,2.485
					l4.126-0.985l8.943-2.143c0.247-0.057,0.499-0.133,0.716-0.238c0.705-0.281,1.3-0.709,1.797-1.241l-0.007-0.012
					c-0.092-0.092-0.195-0.176-0.299-0.26l-8.274-6.835c-0.077-0.068-0.165-0.129-0.254-0.189l-7.443,1.591
					C342.595,218.764,342.622,220.697,343.494,222.228z"/>
				<path style="fill:#EFBFA9;" d="M344.535,207.979c-0.749,0.475-1.377,1.141-1.809,1.982c-1.266,2.471-0.33,5.495,2.085,6.829
					l3.032,1.677l6.369,3.493c0.953,0.529,2.015,0.705,3.014,0.571c0.72-0.074,1.409-0.328,2.027-0.72
					c0.749-0.475,1.369-1.153,1.782-1.998c1.137-2.306,0.306-5.113-1.898-6.431l-2.991-1.769l-3.168-1.891l-3.071-1.818
					C348.18,206.866,346.115,206.976,344.535,207.979z"/>
				<path style="fill:#E89076;" d="M353.334,219.385c-0.539,1.282-1.614,2.339-3.044,2.795l-7.081,2.115
					c-2.632,0.852-5.46-0.563-6.375-3.154c-0.392-1.156-0.376-2.32,0.001-3.377c0.021-0.104,0.069-0.219,0.11-0.314
					c0.587-1.397,1.752-2.506,3.313-2.953l7.176-1.805c1.224-0.341,2.49-0.191,3.548,0.344c1.105,0.532,1.986,1.488,2.439,2.715
					C353.874,216.978,353.809,218.257,353.334,219.385z"/>
				<path style="fill:#EFBFA9;" d="M358.518,220.593c-0.637,1.236-1.791,2.206-3.253,2.55l-10.455,2.435
					c-2.691,0.645-5.4-0.985-6.111-3.639c-0.301-1.183-0.194-2.342,0.264-3.367c0.029-0.102,0.086-0.212,0.134-0.305
					c0.694-1.347,1.941-2.362,3.533-2.686l10.525-2.118c1.247-0.245,2.497,0.003,3.511,0.618c1.06,0.616,1.865,1.638,2.221,2.896
					C359.243,218.235,359.079,219.505,358.518,220.593z"/>
				<g>
					<g>
						<path style="fill:#E89076;" d="M309.972,221.063l23.756-13.707l16.417,3.267l-5.781,8.217l-6.772,0.669
							C337.591,219.508,327.436,239.517,309.972,221.063z"/>
						<path style="fill:#E89076;" d="M350.145,210.623l4.078,8.812c0.886,1.915,0.072,4.187-1.829,5.103l0,0
							c-1.689,0.814-3.718,0.298-4.813-1.224l-3.218-4.474L350.145,210.623z"/>
					</g>
					<g>
						<path style="fill:#EFBFA9;" d="M303.953,218.492l27.986-16.278l19.392,3.789l-6.791,9.723l-7.992,0.818
							C336.549,216.542,324.644,240.202,303.953,218.492z"/>
						<path style="fill:#E89076;" d="M352.977,209.722l-6.332,6.204l1.197,2.541l1.581,3.331c0.082,0.182,0.176,0.355,0.274,0.51
							c1.064,1.676,3.096,2.486,5.053,1.945c1.041-0.277,1.895-0.903,2.475-1.721c0.777-1.06,1.085-2.44,0.737-3.803l-1.816-7.116
							L352.977,209.722z"/>
						<path style="fill:#EFBFA9;" d="M351.331,206.002l4.85,10.385c1.054,2.257,0.102,4.942-2.138,6.031l0,0
							c-1.99,0.968-4.388,0.367-5.686-1.425l-3.817-5.267L351.331,206.002z"/>
					</g>
				</g>
			</g>
			<polygon style="fill:#450000;" points="303.437,217.899 317.312,238.677 312.835,245.66 295.913,223.911 			"/>
		</g>
		<path style="fill:#C43F00;" d="M222.151,356.14l-87.228,0.15l-31.686,0.058c0,0,5.774-13.995,10.808-32.483
			c4.226-15.531,7.933-34.215,7.263-50.427c-0.393-9.688-1.663-19.873-1.651-30.312c0.012-6.628-5.533-52.467,0-56.685
			c12.751-9.722,49.411-11.271,47.205-9.192l28.718,16.328c1.605,5.508,17.159,27.067,19.665,39.561
			c0.208,0.935,0.381,1.917,0.543,2.875c0.497,3.268,0.82,6.605,0.785,10.023c0.012,0.947-0.012,1.951-0.139,2.956
			c-0.058,1.443-0.219,2.945-0.462,4.399c-1.397,8.637-5.416,17.217-13.834,24.746l0.127,0.577l0.023,0.127l5.577,21.686l5.6,21.813
			l0.15,0.577L222.151,356.14z"/>
		<path style="fill:#B22900;" d="M213.733,322.515l-0.116,0.404l-75.531,22.644l-3.164,10.727l-2.182,7.379l-5.831,3.753h-21.005
			c-25.231-2.564-20.277-30.346,8.141-43.556c4.226-15.531,7.933-34.215,7.263-50.427c-0.393-9.688-1.663-19.873-1.651-30.312
			l28.771-29.757l-0.719,70.191l49.557,8.503l10.601,8.464l5.6,21.813C213.56,322.399,213.641,322.457,213.733,322.515z"/>
		<g>
			<defs>
				<path id="SVGID_1_" d="M214.84,345.561l-92.631-1.663c0,0,0.568-34.947-0.906-70.46c-0.632-15.836-3.639-33.007,0.505-50.436
					c10.953-45.828,47.256-47.835,45.051-45.756l28.726,16.336c1.601,5.503,17.149,27.063,19.664,39.558
					c0.204,0.933,0.381,1.914,0.535,2.871c0.5,3.271,0.823,6.614,0.793,10.023c0.003,0.953-0.021,1.955-0.144,2.955
					c-0.059,1.453-0.22,2.954-0.454,4.402c-1.406,8.642-5.418,17.224-13.844,24.749l0.137,0.58l0.022,0.126L214.84,345.561z"/>
			</defs>
			<clipPath id="SVGID_00000116230230206192268910000006812562505516936112_">
				<use xlink:href="#SVGID_1_"  style="overflow:visible;"/>
			</clipPath>
			<g style="clip-path:url(#SVGID_00000116230230206192268910000006812562505516936112_);">
				<polygon style="fill:none;stroke:#EAA105;stroke-miterlimit:10;" points="168.135,254.54 151.779,280.086 135.423,254.54 
					151.779,228.995 				"/>
				<polygon style="fill:none;stroke:#EAA105;stroke-miterlimit:10;" points="200.67,254.54 184.314,280.086 167.958,254.54 
					184.314,228.995 				"/>
				<polygon style="fill:none;stroke:#EAA105;stroke-miterlimit:10;" points="233.204,254.54 216.848,280.086 200.492,254.54 
					216.848,228.995 				"/>
			</g>
		</g>
		<g>
			<circle style="fill:#450000;" cx="217.28" cy="106.032" r="19.12"/>
			<circle style="fill:#450000;" cx="197.808" cy="84.405" r="19.12"/>
			<circle style="fill:#450000;" cx="172.809" cy="91.362" r="19.12"/>
			<path style="fill:#450000;" d="M148.821,103.037c-7.721,19.778-4.989,32.369,7.483,40.59l11.815-12.892l-7.066-31.013
				L148.821,103.037z"/>
			<polygon style="fill:#EFBFA9;" points="155.504,130.735 159.995,178.899 195.865,203.141 196.375,143.765 			"/>
			<polygon style="fill:#450000;" points="149.643,144.198 158.144,159.046 163.463,147.729 			"/>
			<path style="fill:#E89076;" d="M196.04,182.859c0,0-22.125-3.991-22.767-28.965l23.103,7.523L196.04,182.859z"/>
			<path style="fill:#450000;" d="M210.83,95.674c10.698,13.117,12.103,30.396,12.103,30.396l-11.601,1.833l-8.815-27.787
				L210.83,95.674z"/>
			<path style="fill:#EFBFA9;" d="M159.136,111.038l3.451,13.663l1.581,6.227l4.233,16.718c2.285,9.025,9.081,16.224,17.96,19.025
				l13.804,4.354c11.966,3.775,24.27-4.532,25.384-17.03c0.817-9.17,0.811-19.87-2.679-31.237
				c-4.061-13.204-14.649-23.52-27.248-27.639l-0.051-0.015l-2.211-0.661l-0.238-0.06c-1.104-0.288-2.241-0.525-3.376-0.711
				c-2.695-0.478-5.484-0.683-8.298-0.601l-8.93,0.26C163.42,93.597,156.907,102.215,159.136,111.038z"/>
			<ellipse style="fill:none;stroke:#FFFFFF;stroke-miterlimit:10;" cx="221.99" cy="130.844" rx="11.629" ry="12.892"/>
			<g>
				<path d="M217.614,133.557c0.315,3.274-0.639,6.044-2.132,6.188c-1.493,0.144-2.959-2.394-3.274-5.668
					c-0.316-3.274,0.639-6.044,2.132-6.188C215.833,127.746,217.298,130.283,217.614,133.557z"/>
				<path style="fill:#EFBFA9;" d="M208.153,128.688c2.996,7.206,7.945,8.691,11.382,8.741c2.207,0.032,4.021,1.739,4.198,3.939l0,0
					c0.233,2.903-1.265,5.67-3.823,7.061l-9.05,4.923c-5.075,1.697-10.509-1.343-11.718-6.556l-4.097-17.67L208.153,128.688z"/>
				<g>
					<path style="fill:#E89076;" d="M214.202,152.191l-0.551-1.015l5.983-3.254c2.355-1.28,3.738-3.835,3.523-6.508
						c-0.154-1.915-1.715-3.38-3.63-3.408c-3.729-0.054-8.822-1.676-11.907-9.096l1.067-0.443c2.844,6.842,7.474,8.336,10.857,8.385
						c2.514,0.037,4.562,1.959,4.765,4.471c0.251,3.128-1.368,6.117-4.123,7.615L214.202,152.191z"/>
				</g>
				<path d="M197.748,136.517c0.315,3.273-0.639,6.044-2.132,6.188c-1.493,0.144-2.959-2.394-3.274-5.668
					c-0.316-3.274,0.639-6.044,2.132-6.188C195.967,130.706,197.432,133.243,197.748,136.517z"/>
				<path style="fill:#450000;" d="M189.322,123.512c-7.443,3.104-9.488-0.716-4.149-3.951
					C190.915,116.082,198.582,119.65,189.322,123.512z"/>
				<path style="fill:#450000;" d="M210.768,120.025c-5.806-0.942-4.194-4.596,0.662-4.653
					C216.654,115.312,217.992,121.198,210.768,120.025z"/>
				<path style="fill:#FFFFFF;" d="M210.888,154.615l-13.395-1.034c0,0,1.508,7.737,5.395,8.575
					C207.113,163.066,210.888,154.615,210.888,154.615z"/>
			</g>
			<ellipse style="fill:none;stroke:#FFFFFF;stroke-miterlimit:10;" cx="192.561" cy="136.777" rx="11.629" ry="12.892"/>
			<line style="fill:none;stroke:#FFFFFF;stroke-miterlimit:10;" x1="180.95" y1="134.368" x2="167.938" y2="130.684"/>
			<path style="fill:#450000;" d="M178.453,93.187c7.028,16.602-6.203,39.312-33.947,37.657
				C132.824,107.244,133.323,86.139,178.453,93.187z"/>
			<path style="fill:#EFBFA9;" d="M168.919,132.691c-27.861-38.278-42.332,22.336-1.383,19.157L168.919,132.691z"/>
			<polygon style="fill:#450000;" points="168.623,108.176 169.142,140.329 166.448,142.128 156.303,111.215 			"/>
			<path style="fill:#450000;" d="M170.158,96.659c22.274,8.724,42.567,1.513,42.567,1.513S205.329,80.364,170.158,96.659z"/>
			<path style="fill:#450000;" d="M142.005,100.308c0-11.319-12.499-5.893-3.918,1.436c-15.053-2.033-3.658,16.634,3.273,10.106"/>
		</g>
		<path style="fill:#FFFFFF;" d="M197.244,203.774L197.244,203.774c4.833-26.265-19.879-31.831-38.548-39.503l-10.267,13.208
			L197.244,203.774z"/>
		<g>
			<path style="fill:#C43F00;" d="M109.326,279.043c19.72-3.813,37.866,1.713,28.163,21.197l-30.009,1.766L109.326,279.043z"/>
			<path style="fill:#C43F00;" d="M104.921,335.464c-53.253,13.768-44.644-43.345-12.943-51.903L104.921,335.464z"/>
		</g>
		<path style="fill:#C43F00;" d="M107.311,321.043l-31.705,4.666c-5.671-44.923,7.648-93.917,37.472-133.439
			c6.964-9.229,19.86-11.542,29.596-5.307l0,0c8.395,5.377,12.153,15.706,9.177,25.22L107.311,321.043z"/>
		<g>
			<g>
				<path style="fill:#E5EBEA;" d="M264.822,256.235l-2.474-3.128l-0.009,0.016c-0.286-0.337-0.682-0.591-1.188-0.658l-47.53-6.277
					c-1.389-0.183-2.774,0.365-3.66,1.451l-51.058,62.519c-0.894,1.095-0.331,2.749,1.046,3.07l32.743,7.634
					c1.342,0.313,2.751-0.079,3.738-1.041l65.283-63.586H264.822z"/>
				<path style="fill:#FFFFFF;" d="M161.324,313.22l51.058-62.52c0.886-1.085,2.271-1.634,3.66-1.451l47.53,6.277
					c1.582,0.209,2.226,2.15,1.083,3.263l-65.803,64.093c-0.987,0.961-2.396,1.354-3.738,1.041l-32.743-7.634
					C160.994,315.969,160.43,314.315,161.324,313.22z"/>
				
					<ellipse transform="matrix(0.7394 -0.6732 0.6732 0.7394 -133.4694 220.133)" style="fill:#E5EBEA;" cx="217.643" cy="282.489" rx="10.644" ry="5.684"/>
				<path style="fill:#E5EBEA;" d="M217.74,255.905c-0.643,1.071-1.917,1.924-2.844,1.904c-0.927-0.02-1.158-0.905-0.514-1.976
					c0.643-1.071,1.917-1.924,2.844-1.904C218.153,253.949,218.384,254.834,217.74,255.905z"/>
			</g>
			<g>
				<polygon style="fill:#EFBFA9;" points="197.089,315.594 240.329,286.083 184.788,290.267 180.08,308.864 				"/>
				<path style="fill:#EFBFA9;" d="M189.164,292.195l-7.819-1.104c-2.31-0.326-3.691-2.745-2.798-4.9l0.276-0.665
					c1.69-4.079,6.523-5.821,10.426-3.758l0,0c2.618,1.384,4.176,4.18,3.975,7.134l0,0
					C193.083,290.971,191.216,292.485,189.164,292.195z"/>
				<path style="fill:#EFBFA9;" d="M206.336,291.853l33.989-5.763l0.405-1.001c1.587-3.935,4.819-6.967,8.843-8.29
					c0.645-0.22,1.059-0.828,1.044-1.477c-0.002-0.102-0.022-0.205-0.041-0.307c-0.609-2.706-3.027-4.532-5.694-4.472
					c-0.444,0.01-0.887,0.088-1.346,0.201l-2.02,0.696l-0.204,0.073c-3.479,1.207-6.134,4.038-7.114,7.583l-26.982,12.36
					L206.336,291.853z"/>
				<path style="fill:#E89076;" d="M218.959,293.281l15.497-5.348c2.188-6.629,5.907-9.18,9.931-10.502
					c0.645-0.22,1.059-0.828,1.044-1.478c-0.002-0.103-0.022-0.205-0.041-0.307c-0.457-2.076-1.998-3.632-3.875-4.205l-0.204,0.073
					c-3.479,1.207-6.134,4.038-7.114,7.583l-2.934,7.191L218.959,293.281z"/>
				<path style="fill:#EFBFA9;" d="M231.264,286.288l0.402-0.997c1.583-3.928,4.816-6.96,8.838-8.289l0,0
					c0.744-0.246,1.18-1.015,1.009-1.78l0,0c-0.709-3.164-3.904-5.106-7.039-4.279l-2.223,0.775c-3.474,1.21-6.136,4.046-7.124,7.59
					l0,0l-27.859,12.752L231.264,286.288z"/>
			</g>
			<path style="fill:#EFBFA9;" d="M117.957,293.279l68.507,6.937l10.626,15.378c0,0-46.838,23.503-90.743,20.583
				c-18.987-1.263-25.638-25.827-9.856-36.46l2.48-1.671C104.548,294.288,111.265,292.602,117.957,293.279z"/>
		</g>
		<polygon style="fill:#FFFFFF;" points="101.936,373.102 180.527,384 184.824,356.354 107.931,356.345 		"/>
		<polygon style="fill:#FFFFFF;" points="190.916,356.354 195.898,384 224.373,373.102 218.38,356.354 		"/>
	</g>
	<g>
		<g>
			<g>
				<path style="fill:#B22900;" d="M253.202,429.331v40.956h208.238c5.073,0,9.392-3.451,11.009-8.279
					c0.451-1.319,0.694-2.745,0.694-4.237v-15.924c0-1.578-0.276-3.084-0.775-4.475c-1.678-4.698-5.942-8.041-10.928-8.041H253.202z
					"/>
				<path style="fill:#C43F00;" d="M354.616,437.372v24.635h117.832c0.451-1.319,0.694-2.745,0.694-4.237v-15.924
					c0-1.578-0.276-3.084-0.775-4.475H354.616z"/>
				<circle style="fill:#FFB72F;" cx="391.513" cy="449.69" r="9.085"/>
				<path style="fill:#C43F00;" d="M350.64,429.331h-94.049v40.959h94.049c9.404,0,17.028-7.624,17.028-17.028v-6.903
					C367.668,436.954,360.044,429.331,350.64,429.331z"/>
				<path style="fill:#C43F00;" d="M250.902,429.331h17.951v6.136h-17.951c-1.585,0-2.869-1.374-2.869-3.068l0,0
					C248.034,430.704,249.318,429.331,250.902,429.331z"/>
				<path style="fill:#C43F00;" d="M250.585,464.149h18.269v6.136h-18.269c-1.409,0-2.551-1.142-2.551-2.551V466.7
					C248.034,465.292,249.176,464.149,250.585,464.149z"/>
				<g>
					<path style="fill:#E9EEEC;" d="M348.381,435.471h-95.179v28.679h95.179c6.585,0,11.923-5.338,11.923-11.923v-4.833
						C360.304,440.809,354.966,435.471,348.381,435.471z"/>
					<path style="fill:#FFFFFF;" d="M345.95,439.239h-92.748v24.91h95.92c3.574,0,6.471-2.897,6.471-6.471v-8.796
						C355.593,443.556,351.276,439.239,345.95,439.239z"/>
					<g>
						<defs>
							<path id="SVGID_00000004517002517499165030000017709662769562839439_" d="M349.344,439.239h-96.142v24.91h97.999
								c2.426,0,4.392-1.967,4.392-4.393v-14.268C355.593,442.037,352.795,439.239,349.344,439.239z"/>
						</defs>
						<clipPath id="SVGID_00000056425386576359722650000007853577225252171178_">
							<use xlink:href="#SVGID_00000004517002517499165030000017709662769562839439_"  style="overflow:visible;"/>
						</clipPath>
						<g style="clip-path:url(#SVGID_00000056425386576359722650000007853577225252171178_);">
							<line style="fill:none;stroke:#F1F4F6;stroke-miterlimit:10;" x1="356.434" y1="444.395" x2="253.202" y2="444.395"/>
							<line style="fill:none;stroke:#F1F4F6;stroke-miterlimit:10;" x1="359.951" y1="449.466" x2="253.202" y2="449.466"/>
							<line style="fill:none;stroke:#F1F4F6;stroke-miterlimit:10;" x1="359.951" y1="454.537" x2="253.202" y2="454.537"/>
							<line style="fill:none;stroke:#F1F4F6;stroke-miterlimit:10;" x1="359.951" y1="459.608" x2="253.202" y2="459.608"/>
						</g>
					</g>
				</g>
			</g>
			<path style="fill:#EAA105;" d="M454.239,462.007h-1.094h-10.502c-1.628,4.832-5.939,8.275-11.012,8.275h10.502h1.094h10.502
				c5.073,0,9.383-3.443,11.012-8.275H454.239z"/>
			<path style="fill:#EAA105;" d="M453.73,429.329h-10.502h-1.094h-10.502c4.989,0,9.237,3.34,10.928,8.04h10.502h1.094h10.502
				C462.967,432.669,458.719,429.329,453.73,429.329z"/>
			<path style="fill:#FFB72F;" d="M464.658,437.37h-10.502h-1.094H442.56c0.501,1.389,0.772,2.899,0.772,4.475v15.922
				c0,1.492-0.24,2.918-0.689,4.241h10.502h1.094h10.502c0.449-1.323,0.689-2.749,0.689-4.241v-15.922
				C465.43,440.269,465.159,438.758,464.658,437.37z"/>
			<g>
				<polyline style="fill:#DEE5E3;" points="330.586,444.332 330.586,462.008 336.438,458.431 342.29,462.008 342.29,444.332 				
					"/>
				<polygon style="fill:#EAA105;" points="326.197,458.431 332.833,454.854 337.901,458.431 342.29,444.332 330.586,444.332 				
					"/>
			</g>
		</g>
		<g>
			<g>
				<path style="fill:#EAA105;" d="M451.682,399.748v29.681H274.122c-4.326,0-8.008-2.501-9.387-6
					c-0.385-0.956-0.592-1.989-0.592-3.07v-11.54c0-1.144,0.235-2.235,0.661-3.243c1.431-3.405,5.067-5.828,9.318-5.828H451.682z"/>
				<path style="fill:#FFB72F;" d="M365.209,405.575v17.854H264.736c-0.385-0.956-0.592-1.989-0.592-3.07v-11.54
					c0-1.144,0.235-2.235,0.661-3.243H365.209z"/>
				<path style="fill:#C43F00;" d="M338.979,417.447h-62.484c-1.352,0-2.449-1.096-2.449-2.449v-0.993
					c0-1.352,1.096-2.449,2.449-2.449h62.484c1.352,0,2.449,1.096,2.449,2.449v0.993
					C341.428,416.351,340.331,417.447,338.979,417.447z"/>
				<path style="fill:#FFB72F;" d="M366.419,399.747h82.372v29.684h-82.372c-6.816,0-12.341-5.525-12.341-12.34v-5.003
					C354.079,405.272,359.604,399.747,366.419,399.747z"/>
				<path style="fill:#FFB72F;" d="M453.642,399.747h-15.306v4.447h15.306c1.351,0,2.446-0.996,2.446-2.224l0,0
					C456.088,400.743,454.993,399.747,453.642,399.747z"/>
				<path style="fill:#FFB72F;" d="M454.24,424.981h-15.904v4.447h15.904c1.021,0,1.849-0.828,1.849-1.849v-0.749
					C456.088,425.809,455.261,424.981,454.24,424.981z"/>
				<g>
					<path style="fill:#E9EEEC;" d="M451.68,404.201v20.782h-80.926c-1.778,0-3.449-0.452-4.913-1.238
						c-3.262-1.749-5.483-5.198-5.483-9.158c0-2.869,1.169-5.463,3.046-7.34c1.877-1.887,4.481-3.046,7.35-3.046H451.68z"/>
					<path style="fill:#FFFFFF;" d="M451.68,406.932v18.05h-80.926c-1.778,0-3.449-0.452-4.913-1.238
						c-0.904-0.835-1.464-2.034-1.464-3.361v-1.503c0-6.603,5.345-11.948,11.948-11.948H451.68z"/>
					<g>
						<defs>
							<path id="SVGID_00000000185139188210146710000005443821803617341826_" d="M375.402,406.928h76.279v18.053h-83.324
								c-2.2,0-3.983-1.783-3.983-3.983v-3.042C364.375,411.866,369.312,406.928,375.402,406.928z"/>
						</defs>
						<clipPath id="SVGID_00000092442787972010545020000017194434180998465686_">
							<use xlink:href="#SVGID_00000000185139188210146710000005443821803617341826_"  style="overflow:visible;"/>
						</clipPath>
						<g style="clip-path:url(#SVGID_00000092442787972010545020000017194434180998465686_);">
							<line style="fill:none;stroke:#F1F4F6;stroke-miterlimit:10;" x1="363.658" y1="410.665" x2="451.681" y2="410.665"/>
							<line style="fill:none;stroke:#F1F4F6;stroke-miterlimit:10;" x1="360.659" y1="414.34" x2="451.681" y2="414.34"/>
							<line style="fill:none;stroke:#F1F4F6;stroke-miterlimit:10;" x1="360.659" y1="418.015" x2="451.681" y2="418.015"/>
							<line style="fill:none;stroke:#F1F4F6;stroke-miterlimit:10;" x1="360.659" y1="421.69" x2="451.681" y2="421.69"/>
						</g>
					</g>
				</g>
			</g>
		</g>
		<g>
			<g>
				<path style="fill:#450000;" d="M462.164,359.021v40.728H266.805c-6.701,0-12.656-3.242-16.36-8.234
					c-2.516-3.39-4.009-7.595-4.009-12.135c0-4.549,1.493-8.745,4.009-12.135c0.599-0.796,1.248-1.553,1.955-2.26
					c3.685-3.685,8.784-5.964,14.405-5.964H462.164z"/>
				<path style="fill:#5E2222;" d="M372.198,367.245v24.27H250.445c-2.516-3.39-4.009-7.595-4.009-12.135
					c0-4.549,1.493-8.745,4.009-12.135H372.198z"/>
				<path style="fill:#5E2222;" d="M357.35,359.017h101.203v40.731H357.35c-9.352,0-16.933-7.581-16.933-16.933v-6.865
					C340.417,366.598,347.998,359.017,357.35,359.017z"/>
				<path style="fill:#5E2222;" d="M464.604,359.017h-19.092v6.102h19.092c1.685,0,3.051-1.366,3.051-3.051l0,0
					C467.655,360.383,466.289,359.017,464.604,359.017z"/>
				<path style="fill:#5E2222;" d="M465.118,393.642h-19.606v6.102h19.606c1.401,0,2.537-1.136,2.537-2.537v-1.028
					C467.655,394.777,466.519,393.642,465.118,393.642z"/>
				<g>
					<path style="fill:#F2F5F4;" d="M462.155,365.123v28.515H362.51c-7.468,0-13.589-5.738-14.208-13.049
						c-0.029-0.393-0.049-0.796-0.049-1.209c0-3.93,1.592-7.497,4.176-10.081c2.574-2.574,6.141-4.176,10.082-4.176H462.155z"/>
					<path style="fill:#FFFFFF;" d="M462.155,369.741v23.897H362.51c-7.468,0-13.589-5.738-14.208-13.049
						c0.265-2.859,1.533-5.424,3.449-7.35c2.162-2.162,5.149-3.498,8.45-3.498H462.155z"/>
					<g>
						<defs>
							<path id="SVGID_00000130641486667778963220000005826045291891887775_" d="M360.105,365.123h102.052v28.519h-98.971
								c-8.25,0-14.938-6.688-14.938-14.938v-1.725C348.249,370.431,353.557,365.123,360.105,365.123z"/>
						</defs>
						<clipPath id="SVGID_00000105427537659478488290000014151865032150783361_">
							<use xlink:href="#SVGID_00000130641486667778963220000005826045291891887775_"  style="overflow:visible;"/>
						</clipPath>
						<g style="clip-path:url(#SVGID_00000105427537659478488290000014151865032150783361_);">
							<line style="fill:none;stroke:#F1F4F6;stroke-miterlimit:10;" x1="352.365" y1="372.091" x2="462.158" y2="372.091"/>
							<line style="fill:none;stroke:#F1F4F6;stroke-miterlimit:10;" x1="348.624" y1="377.769" x2="462.158" y2="377.769"/>
							<line style="fill:none;stroke:#F1F4F6;stroke-miterlimit:10;" x1="348.624" y1="383.447" x2="462.158" y2="383.447"/>
							<line style="fill:none;stroke:#F1F4F6;stroke-miterlimit:10;" x1="348.624" y1="389.126" x2="462.158" y2="389.126"/>
						</g>
					</g>
					<polyline style="fill:#DEE5E3;" points="380.733,372.091 380.733,391.512 374.302,387.582 367.872,391.512 367.872,372.091 
											"/>
					<polygon style="fill:#C43F00;" points="385.556,387.582 378.263,383.652 372.695,387.582 367.872,372.091 380.733,372.091 
											"/>
				</g>
				<line style="fill:#F1F4F6;" x1="369.733" y1="370.879" x2="381.754" y2="370.879"/>
			</g>
			<path style="fill:#B22900;" d="M298.484,399.749h-22.413c-6.701,0-12.656-3.242-16.36-8.234
				c-2.515-3.39-4.009-7.595-4.009-12.135c0-4.549,1.494-8.745,4.009-12.135c0.599-0.796,1.248-1.553,1.955-2.26
				c3.685-3.685,8.784-5.964,14.405-5.964h22.413c-5.62,0-10.72,2.28-14.405,5.964c-0.708,0.707-1.356,1.464-1.955,2.26
				c-2.515,3.39-4.009,7.586-4.009,12.135c0,4.54,1.494,8.745,4.009,12.135C285.828,396.507,291.783,399.749,298.484,399.749z"/>
			<path style="fill:#B22900;" d="M313.498,399.749h-9.669c-6.701,0-12.656-3.242-16.36-8.234c-2.515-3.39-4.009-7.595-4.009-12.135
				c0-4.549,1.493-8.745,4.009-12.135c0.599-0.796,1.248-1.553,1.955-2.26c3.685-3.685,8.784-5.964,14.405-5.964h9.669
				c-5.62,0-10.72,2.28-14.405,5.964c-0.707,0.707-1.356,1.464-1.955,2.26c-2.515,3.39-4.009,7.586-4.009,12.135
				c0,4.54,1.493,8.745,4.009,12.135C300.842,396.507,306.797,399.749,313.498,399.749z"/>
			<path style="fill:#C43F00;" d="M278.115,379.38c0,4.54,1.494,8.745,4.009,12.135h-22.413c-2.515-3.39-4.009-7.595-4.009-12.135
				c0-4.549,1.494-8.745,4.009-12.135h22.413C279.609,370.635,278.115,374.831,278.115,379.38z"/>
			<path style="fill:#C43F00;" d="M293.129,379.38c0,4.54,1.493,8.745,4.009,12.135h-9.669c-2.515-3.39-4.009-7.595-4.009-12.135
				c0-4.549,1.493-8.745,4.009-12.135h9.669C294.623,370.635,293.129,374.831,293.129,379.38z"/>
			<path style="fill:#B22900;" d="M353.824,399.749h-9.669c-6.701,0-12.656-3.242-16.36-8.234c-2.515-3.39-4.009-7.595-4.009-12.135
				c0-4.549,1.493-8.745,4.009-12.135c0.599-0.796,1.248-1.553,1.955-2.26c3.685-3.685,8.784-5.964,14.405-5.964h9.669
				c-5.62,0-10.72,2.28-14.405,5.964c-0.707,0.707-1.356,1.464-1.955,2.26c-2.515,3.39-4.009,7.586-4.009,12.135
				c0,4.54,1.493,8.745,4.009,12.135C341.168,396.507,347.123,399.749,353.824,399.749z"/>
			<path style="fill:#C43F00;" d="M333.455,379.38c0,4.54,1.493,8.745,4.009,12.135h-9.669c-2.515-3.39-4.009-7.595-4.009-12.135
				c0-4.549,1.493-8.745,4.009-12.135h9.669C334.948,370.635,333.455,374.831,333.455,379.38z"/>
		</g>
	</g>
	<path style="fill:#F2F5F4;" d="M322.452,266.984h82.243c5.151,0,9.326-4.175,9.326-9.326l0,0c0-5.151-4.175-9.326-9.326-9.326
		h-82.243c-5.151,0-9.326,4.175-9.326,9.326l0,0C313.126,262.808,317.301,266.984,322.452,266.984z"/>
	<g>
		<path style="fill:#F2F5F4;" d="M323.462,355.682h81.62c5.708,0,10.336-4.628,10.336-10.336v-60.354
			c0-5.708-4.628-10.336-10.336-10.336h-81.62c-5.708,0-10.336,4.628-10.336,10.336v60.354
			C313.126,351.054,317.754,355.682,323.462,355.682z"/>
		<g>
			<path style="fill:#FFFFFF;stroke:#F1F1F3;stroke-miterlimit:10;" d="M338.431,350.008h81.62c5.709,0,10.336-4.628,10.336-10.336
				v-60.354c0-5.709-4.628-10.336-10.336-10.336h-81.62c-5.708,0-10.336,4.628-10.336,10.336v60.354
				C328.095,345.381,332.722,350.008,338.431,350.008z"/>
			<g>
				<path style="fill:#FFFFFF;stroke:#F1F1F3;stroke-miterlimit:10;" d="M337.421,261.31h82.243c5.151,0,9.326-4.175,9.326-9.326
					l0,0c0-5.15-4.175-9.326-9.326-9.326h-82.243c-5.151,0-9.326,4.175-9.326,9.326l0,0
					C328.095,257.135,332.27,261.31,337.421,261.31z"/>
				<path style="fill:#D57548;" d="M343.868,251.984c0,2.306-1.869,4.176-4.175,4.176s-4.176-1.869-4.176-4.176
					c0-2.306,1.87-4.175,4.176-4.175S343.868,249.678,343.868,251.984z"/>
				<path style="fill:#FFB72F;" d="M360.508,251.984c0,2.306-1.87,4.176-4.176,4.176s-4.175-1.869-4.175-4.176
					c0-2.306,1.869-4.175,4.175-4.175S360.508,249.678,360.508,251.984z"/>
				<path style="fill:#AABC95;" d="M377.147,251.984c0,2.306-1.869,4.176-4.175,4.176s-4.176-1.869-4.176-4.176
					c0-2.306,1.869-4.175,4.176-4.175S377.147,249.678,377.147,251.984z"/>
			</g>
			<g>
				
					<line style="fill:none;stroke:#E3E9E7;stroke-width:5;stroke-linecap:round;stroke-linejoin:round;stroke-miterlimit:10;" x1="340.397" y1="285.331" x2="416.688" y2="285.331"/>
				
					<line style="fill:none;stroke:#E3E9E7;stroke-width:5;stroke-linecap:round;stroke-linejoin:round;stroke-miterlimit:10;" x1="340.397" y1="294.588" x2="383.179" y2="294.588"/>
			</g>
		</g>
		<g>
			
				<rect x="342.729" y="327.245" style="fill:none;stroke:#FFB72F;stroke-width:3;stroke-miterlimit:10;" width="11.992" height="11.993"/>
			<polygon style="fill:none;stroke:#AABC95;stroke-width:3;stroke-linejoin:round;stroke-miterlimit:10;" points="342.729,339.238 
				342.729,304.068 415.166,339.238 			"/>
		</g>
	</g>
	<g>
		<g>
			<g>
				<g>
					<path style="fill:none;stroke:#EAA105;stroke-miterlimit:10;" d="M302.813,155.669c-0.678-0.012-1.346-0.005-2.005,0.022"/>
					<path style="fill:none;stroke:#EAA105;stroke-miterlimit:10;stroke-dasharray:4.1538,2.0769;" d="M298.733,155.842
						c-25.373,2.665-35.596,34.497-23.867,51.989"/>
					<path style="fill:none;stroke:#EAA105;stroke-miterlimit:10;" d="M275.453,208.668c0.393,0.537,0.807,1.059,1.244,1.565"/>
				</g>
			</g>
			<path style="fill:#EAA105;" d="M277.686,204.639c3.077,0.611,5.075,3.601,4.464,6.678c-0.611,3.077-3.601,5.076-6.678,4.464
				c-3.077-0.611-5.075-3.601-4.464-6.678C271.62,206.026,274.609,204.028,277.686,204.639z"/>
		</g>
		<g>
			<g>
				<g>
					<path style="fill:none;stroke:#AABC95;stroke-miterlimit:10;" d="M438.43,290.908c0.662,0.145,1.319,0.269,1.97,0.372"/>
					<path style="fill:none;stroke:#AABC95;stroke-miterlimit:10;stroke-dasharray:4.1538,2.0769;" d="M442.464,291.54
						c25.402,2.37,41.678-26.835,33.612-46.289"/>
					<path style="fill:none;stroke:#AABC95;stroke-miterlimit:10;" d="M475.666,244.315c-0.28-0.604-0.584-1.197-0.913-1.779"/>
				</g>
			</g>
			<path style="fill:#AABC95;" d="M472.685,247.827c-2.897-1.204-4.269-4.528-3.066-7.425c1.204-2.897,4.528-4.269,7.425-3.066
				c2.897,1.204,4.269,4.528,3.066,7.425C478.906,247.658,475.582,249.031,472.685,247.827z"/>
		</g>
		<g>
			<g>
				<g>
					<path style="fill:none;stroke:#D7E0DD;stroke-miterlimit:10;" d="M382.367,109.506c0.21-0.644,0.399-1.285,0.566-1.923"/>
					<path style="fill:none;stroke:#D7E0DD;stroke-miterlimit:10;stroke-dasharray:4.1538,2.0769;" d="M383.398,105.554
						c4.892-25.039-22.542-44.147-42.705-38.063"/>
					<path style="fill:none;stroke:#D7E0DD;stroke-miterlimit:10;" d="M339.721,67.807c-0.629,0.218-1.25,0.461-1.861,0.731"/>
				</g>
			</g>
			<path style="fill:#D7E0DD;" d="M342.918,71.124c-1.487,2.762-4.931,3.796-7.694,2.31c-2.762-1.487-3.796-4.931-2.31-7.694
				c1.487-2.762,4.931-3.796,7.694-2.31C343.371,64.917,344.405,68.362,342.918,71.124z"/>
		</g>
	</g>
	<g>
		<g>
			
				<line style="fill:none;stroke:#D7E0DD;stroke-width:5;stroke-linecap:round;stroke-linejoin:round;stroke-miterlimit:10;" x1="79.761" y1="112.556" x2="101.575" y2="112.556"/>
			
				<line style="fill:none;stroke:#D7E0DD;stroke-width:5;stroke-linecap:round;stroke-linejoin:round;stroke-miterlimit:10;" x1="79.761" y1="123.738" x2="91.933" y2="123.738"/>
		</g>
		<g>
			
				<line style="fill:none;stroke:#D7E0DD;stroke-width:5;stroke-linecap:round;stroke-linejoin:round;stroke-miterlimit:10;" x1="274.395" y1="105.978" x2="349.437" y2="105.978"/>
			
				<line style="fill:none;stroke:#D7E0DD;stroke-width:5;stroke-linecap:round;stroke-linejoin:round;stroke-miterlimit:10;" x1="274.395" y1="116.76" x2="301.538" y2="116.76"/>
		</g>
		<g>
			
				<line style="fill:none;stroke:#D7E0DD;stroke-width:5;stroke-linecap:round;stroke-linejoin:round;stroke-miterlimit:10;" x1="454.397" y1="317.156" x2="477.147" y2="317.156"/>
			
				<line style="fill:none;stroke:#D7E0DD;stroke-width:5;stroke-linecap:round;stroke-linejoin:round;stroke-miterlimit:10;" x1="443.769" y1="317.156" x2="446.783" y2="317.156"/>
			
				<line style="fill:none;stroke:#D7E0DD;stroke-width:5;stroke-linecap:round;stroke-linejoin:round;stroke-miterlimit:10;" x1="465.364" y1="326.15" x2="477.147" y2="326.15"/>
		</g>
	</g>
	<g>
		<path style="fill:#D7E0DD;" d="M249.304,58.137v14.094l-12.717,15.157h53.428c16.155,0,29.251-13.096,29.251-29.251l0,0
			c0-16.155-13.096-29.251-29.251-29.251h-11.46C262.4,28.886,249.304,41.982,249.304,58.137z"/>
		<g>
			<path style="fill:#F2F5F4;" d="M271.846,64.704c0,2.871-2.328,5.199-5.199,5.199s-5.198-2.327-5.198-5.199
				s2.327-5.199,5.198-5.199S271.846,61.833,271.846,64.704z"/>
			<path style="fill:#F2F5F4;" d="M289.517,64.704c0,2.871-2.327,5.199-5.199,5.199s-5.199-2.327-5.199-5.199
				s2.327-5.199,5.199-5.199S289.517,61.833,289.517,64.704z"/>
			<path style="fill:#F2F5F4;" d="M307.187,64.704c0,2.871-2.328,5.199-5.199,5.199c-2.871,0-5.199-2.327-5.199-5.199
				s2.327-5.199,5.199-5.199C304.86,59.505,307.187,61.833,307.187,64.704z"/>
		</g>
	</g>
	<g>
		<g>
			<circle style="fill:#D7E0DD;" cx="230.553" cy="435.769" r="8.564"/>
			<circle style="fill:#D7E0DD;" cx="429.918" cy="95.381" r="5.591"/>
			<circle style="fill:#D7E0DD;" cx="38.28" cy="107.547" r="7.825"/>
			<path style="fill:#D7E0DD;" d="M89.558,430.572c0-2.706-2.193-4.899-4.899-4.899c-2.706,0-4.899,2.193-4.899,4.899
				c0,2.705,2.193,4.899,4.899,4.899C87.365,435.471,89.558,433.278,89.558,430.572z"/>
		</g>
		<g>
			<path style="fill:#AABC95;" d="M170.158,417.85c0,1.849-1.499,3.348-3.348,3.348c-1.849,0-3.348-1.499-3.348-3.348
				c0-1.849,1.499-3.348,3.348-3.348C168.659,414.502,170.158,416.001,170.158,417.85z"/>
			<path style="fill:#AABC95;" d="M222.479,47.611c0-1.852-1.502-3.354-3.354-3.354c-1.852,0-3.354,1.502-3.354,3.354
				c0,1.852,1.502,3.354,3.354,3.354C220.977,50.965,222.479,49.463,222.479,47.611z"/>
			<path style="fill:#AABC95;" d="M405.077,77.478c0-1.858-1.506-3.365-3.365-3.365c-1.858,0-3.365,1.506-3.365,3.365
				s1.506,3.365,3.365,3.365C403.57,80.842,405.077,79.336,405.077,77.478z"/>
			<path style="fill:#AABC95;" d="M20.128,247.742c0,2.875-2.331,5.206-5.206,5.206s-5.206-2.331-5.206-5.206
				s2.331-5.206,5.206-5.206S20.128,244.867,20.128,247.742z"/>
			<path style="fill:#AABC95;" d="M486.342,340.494c0,1.601-1.298,2.898-2.898,2.898c-1.601,0-2.898-1.298-2.898-2.898
				c0-1.601,1.298-2.898,2.898-2.898C485.045,337.595,486.342,338.893,486.342,340.494z"/>
		</g>
		<g>
			<circle style="fill:#D7E0DD;" cx="106.833" cy="44.257" r="11.275"/>
			
				<ellipse transform="matrix(0.2309 -0.973 0.973 0.2309 0.6422 153.0394)" style="fill:#D7E0DD;" cx="97.122" cy="76.113" rx="11.275" ry="11.275"/>
			
				<ellipse transform="matrix(0.7071 -0.7071 0.7071 0.7071 -3.3479 116.3966)" style="fill:#D7E0DD;" cx="138.829" cy="62.24" rx="11.275" ry="11.275"/>
			
				<line style="fill:none;stroke:#D7E0DD;stroke-width:5;stroke-linecap:round;stroke-linejoin:round;stroke-miterlimit:10;" x1="97.122" y1="76.114" x2="106.833" y2="44.257"/>
			
				<line style="fill:none;stroke:#D7E0DD;stroke-width:5;stroke-linecap:round;stroke-linejoin:round;stroke-miterlimit:10;" x1="138.829" y1="62.24" x2="108.397" y2="44.257"/>
			
				<line style="fill:none;stroke:#D7E0DD;stroke-width:5;stroke-linecap:round;stroke-linejoin:round;stroke-miterlimit:10;" x1="97.122" y1="76.114" x2="138.829" y2="62.24"/>
		</g>
	</g>
</g>
</svg>
