<?xml version="1.0" encoding="utf-8"?>
<!-- Generator: Adobe Illustrator 27.0.0, SVG Export Plug-In . SVG Version: 6.00 Build 0)  -->
<svg version="1.1" id="Layer_1" xmlns="http://www.w3.org/2000/svg" xmlns:xlink="http://www.w3.org/1999/xlink" x="0px" y="0px"
	 viewBox="0 0 456 354" style="enable-background:new 0 0 456 354;" xml:space="preserve">
<style type="text/css">
	.st0{fill:#EFE9FF;}
	.st1{fill:#DFF1FD;}
	.st2{fill:#C4BFFF;}
	.st3{fill:url(#SVGID_1_);}
	.st4{fill:none;stroke:#4089C1;stroke-width:1.8488;stroke-linecap:round;stroke-miterlimit:10;}
	.st5{fill:url(#SVGID_00000034048700244352833850000017439614940409750672_);}
	.st6{fill:none;stroke:#B2C0CA;stroke-width:0.9244;stroke-linecap:round;stroke-miterlimit:10;}
	.st7{fill:url(#SVGID_00000032641734796471353100000013211216315289112763_);}
	.st8{fill:url(#SVGID_00000073001359138648007380000002384630100226138284_);}
	.st9{fill:url(#SVGID_00000152254826579343400940000010218297107499510696_);}
	.st10{fill:none;stroke:#B2C0CA;stroke-width:1.8488;stroke-linecap:round;stroke-miterlimit:10;}
	.st11{fill:url(#SVGID_00000148627141009648002640000014410184831639643832_);}
	.st12{fill:url(#SVGID_00000163770325493524459320000011338647477094302630_);}
	.st13{fill:url(#SVGID_00000092431395661853820510000017962653420257517697_);}
	.st14{fill:url(#SVGID_00000036937828961460172240000015178859549436225465_);}
	.st15{fill:url(#SVGID_00000001645263203795415810000008894408062000118947_);}
	.st16{fill:none;stroke:#7062B4;stroke-width:1.8488;stroke-linecap:round;stroke-miterlimit:10;}
	.st17{fill:url(#SVGID_00000108281444474595438550000009066342559578292905_);}
	.st18{fill:#0D2933;}
	.st19{opacity:0.59;fill:#7FC8FD;enable-background:new    ;}
	.st20{opacity:0.59;fill:#F0F8FF;enable-background:new    ;}
	.st21{fill:none;stroke:#174859;stroke-width:5.5533;stroke-miterlimit:10;}
	.st22{fill:#FF5D7B;}
	.st23{fill:#F4B031;}
	.st24{fill:#E8A423;}
	.st25{fill:#F4C43E;}
	.st26{fill:#FACFC9;}
	.st27{fill:#174859;}
	.st28{fill:#AAB9D8;}
	.st29{fill:#B4D3F7;}
	.st30{fill:#99C5F7;}
	.st31{fill:none;stroke:#C1DEFF;stroke-width:1.4337;stroke-linejoin:round;stroke-miterlimit:10;}
	.st32{fill:#E0EFF2;}
	.st33{fill:#C1DEFF;}
	.st34{fill:#164454;}
	.st35{fill:#FFFFFF;}
	.st36{fill:#DFECF0;}
	.st37{fill:#66A1ED;}
	.st38{fill:#8CBDF7;}
	.st39{fill:#0F2F3B;}
	.st40{fill:#143E4D;}
	.st41{fill:#CF2949;}
	.st42{fill:#FFD96E;}
	.st43{fill:none;stroke:#FFF8E6;stroke-width:0.5581;stroke-linejoin:round;stroke-miterlimit:10;}
	.st44{fill:#FFE69E;}
	.st45{fill:none;stroke:#174859;stroke-width:0.816;stroke-miterlimit:10;}
	.st46{fill:#CC3853;}
	.st47{fill:#5384C2;}
	.st48{fill:#E03D5B;}
	.st49{fill:#ABB5F3;}
	.st50{fill:#C6E6FD;}
	.st51{fill:#E0A880;}
	.st52{fill:#F8C29C;}
</style>
<g id="OBJECTS">
	<g>
		<g>
			<path class="st0" d="M219.1,135.8c0.5-1.3,0.7-2.8,0.7-4.3c0-6.9-5.5-12.5-12.3-12.7c-1.5-6.3-7.2-11-14-11c-0.4,0-0.8,0-1.1,0
				c-1.2-1-2.7-1.8-4.3-2.2c-0.8-4-3.6-7.2-7.3-8.6c0.2-1.1,0.2-2.2,0.2-3.4c0-13.1-10.6-23.7-23.7-23.7c-12.7,0-23,10-23.7,22.5
				c-8.6,1-15.3,8.3-15.3,17.2c0,0.4,0,0.8,0,1.2c-4.7,0.6-8.4,4.6-8.4,9.5c0,3.7,2.1,6.9,5.2,8.5c-0.1,0.6-0.2,1.3-0.2,1.9
				c0,1.8,0.5,3.4,1.3,4.8H116c-3.6,0-6.6,3-6.6,6.6l0,0c0,3.6,3,6.6,6.6,6.6h101.7c3.6,0,6.6-3,6.6-6.6l0,0
				C224.5,139.1,222.2,136.4,219.1,135.8z"/>
			<path class="st0" d="M265,117.1c-0.4-1-0.6-2.1-0.6-3.2c0-5.2,4.2-9.5,9.4-9.7c1.2-4.8,5.5-8.4,10.7-8.4c0.3,0,0.6,0,0.9,0
				c0.9-0.8,2.1-1.4,3.3-1.7c0.6-3,2.7-5.5,5.6-6.6c-0.1-0.8-0.2-1.7-0.2-2.6c0-10,8.1-18.1,18.1-18.1c9.7,0,17.6,7.6,18.1,17.1
				c6.6,0.8,11.7,6.4,11.7,13.1c0,0.3,0,0.6,0,0.9c3.6,0.5,6.4,3.5,6.4,7.2c0,2.8-1.6,5.3-4,6.5c0.1,0.5,0.2,1,0.2,1.5
				c0,1.3-0.4,2.6-1,3.7h0.2c2.8,0,5,2.3,5,5l0,0c0,2.8-2.3,5-5,5h-77.5c-2.8,0-5-2.3-5-5l0,0C260.9,119.6,262.7,117.5,265,117.1z"
				/>
			<path class="st0" d="M213.2,45c-0.3-0.7-0.4-1.5-0.4-2.3c0-3.7,3-6.8,6.7-6.9c0.8-3.4,3.9-6,7.6-6c0.2,0,0.4,0,0.6,0
				c0.7-0.6,1.5-1,2.4-1.2c0.4-2.2,2-3.9,4-4.7c-0.1-0.6-0.1-1.2-0.1-1.8c0-7.1,5.8-12.9,12.9-12.9c6.9,0,12.6,5.4,12.9,12.3
				c4.7,0.6,8.3,4.5,8.3,9.4c0,0.2,0,0.4,0,0.6c2.6,0.3,4.5,2.5,4.5,5.2c0,2-1.1,3.8-2.8,4.6c0.1,0.3,0.1,0.7,0.1,1.1
				c0,1-0.3,1.9-0.7,2.6h0.1c2,0,3.6,1.6,3.6,3.6l0,0c0,2-1.6,3.6-3.6,3.6h-55.4c-2,0-3.6-1.6-3.6-3.6l0,0
				C210.2,46.8,211.5,45.3,213.2,45z"/>
			<path class="st1" d="M295.1,201.2c-0.4-1-0.6-2.1-0.6-3.2c0-5.2,4.2-9.5,9.4-9.7c1.2-4.8,5.5-8.4,10.7-8.4c0.3,0,0.6,0,0.9,0
				c0.9-0.8,2.1-1.4,3.3-1.7c0.6-3,2.7-5.5,5.6-6.6c-0.1-0.8-0.2-1.7-0.2-2.6c0-10,8.1-18.1,18.1-18.1c9.7,0,17.6,7.6,18.1,17.1
				c6.6,0.8,11.7,6.4,11.7,13.1c0,0.3,0,0.6,0,0.9c3.6,0.5,6.4,3.5,6.4,7.2c0,2.8-1.6,5.3-4,6.5c0.1,0.5,0.2,1,0.2,1.5
				c0,1.3-0.4,2.6-1,3.7h0.2c2.8,0,5,2.3,5,5l0,0c0,2.8-2.3,5-5,5h-77.5c-2.8,0-5-2.3-5-5l0,0C291.1,203.7,292.8,201.6,295.1,201.2z
				"/>
			<path class="st1" d="M39.5,235.8c-0.4-1-0.6-2.1-0.6-3.2c0-5.2,4.2-9.5,9.4-9.7c1.2-4.8,5.5-8.4,10.7-8.4c0.3,0,0.6,0,0.9,0
				c0.9-0.8,2.1-1.4,3.3-1.7c0.6-3,2.7-5.5,5.6-6.6c-0.1-0.8-0.2-1.7-0.2-2.6c0-10,8.1-18.1,18.1-18.1c9.7,0,17.6,7.6,18.1,17.1
				c6.6,0.8,11.7,6.4,11.7,13.1c0,0.3,0,0.6,0,0.9c3.6,0.5,6.4,3.5,6.4,7.2c0,2.8-1.6,5.3-4,6.5c0.1,0.5,0.2,1,0.2,1.5
				c0,1.3-0.4,2.6-1,3.7h0.2c2.8,0,5,2.3,5,5l0,0c0,2.8-2.3,5-5,5H40.5c-2.8,0-5-2.3-5-5l0,0C35.4,238.3,37.2,236.3,39.5,235.8z"/>
		</g>
		<ellipse class="st2" cx="228" cy="303.6" rx="220.1" ry="35.4"/>
		<g>
			<g>
				
					<linearGradient id="SVGID_1_" gradientUnits="userSpaceOnUse" x1="255.2099" y1="799.7101" x2="283.3063" y2="799.7101" gradientTransform="matrix(0.986 0.1669 0.1669 -0.986 -19.0855 849.0373)">
					<stop  offset="0.191" style="stop-color:#47A2E9"/>
					<stop  offset="0.6581" style="stop-color:#8ABCF7"/>
				</linearGradient>
				<path class="st3" d="M372.6,131c0,0-6.6-24.1-5.4-34.8c1.2-10.6,7.1-7.3,8.2,0.7s7.7,3.8,2.8-7.8c-4.8-11.6,6.7-19.5,8.9-12.5
					c2.2,7-7.5,31.6-3.8,32.9c3.6,1.3,3.9-11.3,7.8-10.9s4.4,12.8-2.9,21.7c-7.3,8.8-7.3,15.3-10.3,16.7
					C374.8,138.5,372.6,131,372.6,131z"/>
				<path class="st4" d="M375.9,128.7c0,0-1.1-10.1,0.6-14.4c1.7-4.2,3.9-12.6,3.9-12.6"/>
				<path class="st4" d="M376.2,115.4c0,0-3.5-6.4-3-9.2"/>
				<path class="st4" d="M375.5,119.3c0.1,0.5,12.9-6.3,13.9-10.3"/>
			</g>
			<g>
				
					<linearGradient id="SVGID_00000051341985336557118960000005475478447826099335_" gradientUnits="userSpaceOnUse" x1="49.3304" y1="704.7861" x2="23.7239" y2="750.0011" gradientTransform="matrix(0.8701 0.4928 0.4928 -0.8701 -14.0381 759.8844)">
					<stop  offset="0.2435" style="stop-color:#49687E"/>
					<stop  offset="1" style="stop-color:#DFF1FD"/>
				</linearGradient>
				<path style="fill:url(#SVGID_00000051341985336557118960000005475478447826099335_);" d="M361.3,163c0,0,2.2-18.3,12.6-30.3
					C384.3,120.6,391,119,391,119s6.2,15.2-6.5,31.5C371.7,166.9,354.9,180,361.3,163z"/>
				<path class="st6" d="M360.3,170.5c0,0,21-29.6,27.5-47.2"/>
				<path class="st6" d="M362.3,167.7c0,0,7.7-3.2,8.9-4.4"/>
				<path class="st6" d="M366.6,146.7c-1.4,3.2,1.2,12.6,1.2,12.6s8.2-0.1,9.3-1.4"/>
				<path class="st6" d="M373.2,151c0,0,5.7-0.4,8.7-1.4"/>
				<path class="st6" d="M377.5,143.4c0,0,8.8,0.5,10.9-1.6"/>
				<path class="st6" d="M375.4,147.2c0,0-3.1-9.7-1.4-12.3"/>
				<path class="st6" d="M381.7,136.5c0,0,7.1-0.1,8.8-2"/>
				<path class="st6" d="M383.7,132.5c0,0-1.9-4.2-1.2-5.3"/>
			</g>
			<g>
				
					<linearGradient id="SVGID_00000061463311781405730650000000337344517167384475_" gradientUnits="userSpaceOnUse" x1="271.2024" y1="754.5494" x2="264.908" y2="797.1484" gradientTransform="matrix(0.9893 0.1462 0.1462 -0.9893 -10.4192 855.2436)">
					<stop  offset="0.2435" style="stop-color:#49687E"/>
					<stop  offset="1" style="stop-color:#DFF1FD"/>
				</linearGradient>
				<path style="fill:url(#SVGID_00000061463311781405730650000000337344517167384475_);" d="M362,143c0,0-3.3-13,0.6-23.9
					s8-13.7,8-13.7s8.2,8.7,3.8,23.1C370.2,142.9,362.2,156.2,362,143z"/>
				<path class="st6" d="M363.3,148.4c0,0,6.5-25.6,6.3-39.2"/>
				<path class="st6" d="M363.9,145.9c0,0,4.4-4.2,4.9-5.3"/>
				<path class="st6" d="M361.4,130.6c-0.1,2.6,4.1,8.2,4.1,8.2s5.5-2.2,5.9-3.4"/>
				<path class="st6" d="M367,131.7c0,0,3.8-1.7,5.5-3.2"/>
				<path class="st6" d="M367.9,125.4c0,0,6.1-2,6.9-4"/>
				<path class="st6" d="M367.4,128.6c0,0-4.6-5.8-4.2-8"/>
				<path class="st6" d="M368.9,119.7c0,0,4.8-1.9,5.4-3.7"/>
				<path class="st6" d="M369.3,116.5c0,0-2.4-2.3-2.2-3.3"/>
			</g>
			<g>
				
					<linearGradient id="SVGID_00000013151742765245668220000012925101338838913185_" gradientUnits="userSpaceOnUse" x1="334.8392" y1="706.5236" x2="386.624" y2="706.5236" gradientTransform="matrix(1 0 0 -1 0 892)">
					<stop  offset="0.191" style="stop-color:#47A2E9"/>
					<stop  offset="0.6581" style="stop-color:#8ABCF7"/>
				</linearGradient>
				<path style="fill:url(#SVGID_00000013151742765245668220000012925101338838913185_);" d="M355.5,234.1c0,0-19.5-41.9-20.6-61.6
					c-1-19.7,10.6-15.4,15.1-1.3s15.1,4.5,2.7-15s6.2-37.5,12.3-25.4c6.2,12.1-3.9,59.7,3.1,61s3.6-21.8,10.9-22.2
					c7.2-0.3,11.9,22,1.3,40.3s-8.6,30.1-13.7,33.6C361.8,246.9,355.5,234.1,355.5,234.1z"/>
				<path class="st4" d="M360.8,228.9c0,0-5.1-18.1-3.3-26.3c1.8-8.2,3.3-24.2,3.3-24.2"/>
				<path class="st4" d="M357.1,204.6c0,0-8.4-10.6-8.4-15.9"/>
				<path class="st4" d="M357.1,211.8c0.4,0.8,21.6-15.5,22-23.1"/>
			</g>
			<g>
				
					<linearGradient id="SVGID_00000111912749177194799400000004503172131237524131_" gradientUnits="userSpaceOnUse" x1="374.4678" y1="608.4186" x2="374.4678" y2="700.8" gradientTransform="matrix(1 0 0 -1 0 892)">
					<stop  offset="0.2435" style="stop-color:#49687E"/>
					<stop  offset="1" style="stop-color:#DFF1FD"/>
				</linearGradient>
				<path style="fill:url(#SVGID_00000111912749177194799400000004503172131237524131_);" d="M367,272.7c0,0-11-26.1-6.1-50.2
					c4.8-24.1,12.5-31.3,12.5-31.3s19.8,15.7,15.2,47.2S371.3,300.5,367,272.7z"/>
				<path class="st10" d="M371.4,283.6c0,0,5.7-55.7,1-84.1"/>
				<path class="st10" d="M371.9,278.2c0,0,7.9-10.1,8.6-12.6"/>
				<path class="st10" d="M361.8,246.9c0.5,5.4,11.2,16,11.2,16s10.9-6.4,11.4-9"/>
				<path class="st10" d="M373.8,247.6c0,0,7.3-4.8,10.6-8.4"/>
				<path class="st10" d="M373.8,234.1c0,0,12.1-6,13.3-10.5"/>
				<path class="st10" d="M373.8,240.9c0,0-11.5-10.7-11.2-15.5"/>
				<path class="st10" d="M374.1,221.8c0,0,9.4-5.5,10.3-9.4"/>
				<path class="st10" d="M373.9,214.9c0,0-5.7-4.1-5.7-6.2"/>
			</g>
			<g>
				
					<linearGradient id="SVGID_00000159448989425335998580000008738312464065297594_" gradientUnits="userSpaceOnUse" x1="266.2923" y1="636.9973" x2="241.636" y2="721.9264" gradientTransform="matrix(0.9603 0.2788 0.2788 -0.9603 -31.3627 814.7977)">
					<stop  offset="0.2435" style="stop-color:#49687E"/>
					<stop  offset="1" style="stop-color:#DFF1FD"/>
				</linearGradient>
				<path style="fill:url(#SVGID_00000159448989425335998580000008738312464065297594_);" d="M384.3,265.4c0,0-3.2-28.1,8.1-49.9
					s20.7-26.6,20.7-26.6s14.6,20.6,1.4,49.6C401.4,267.5,380.8,293.2,384.3,265.4z"/>
				<path class="st10" d="M385.5,277c0,0,21-51.9,24.4-80.5"/>
				<path class="st10" d="M387.5,272c0,0,10.4-7.5,11.8-9.7"/>
				<path class="st10" d="M386.5,239.1c-1,5.4,6.3,18.5,6.3,18.5s12.2-3.1,13.4-5.4"/>
				<path class="st10" d="M397.9,243.2c0,0,8.4-2.6,12.5-5.1"/>
				<path class="st10" d="M401.7,230.2c0,0,13.3-2.4,15.7-6.3"/>
				<path class="st10" d="M399.8,236.7c0,0-8.1-13.5-6.4-18"/>
				<path class="st10" d="M405.4,218.4c0,0,10.6-2.7,12.5-6.2"/>
				<path class="st10" d="M407.1,211.8c0,0-4.4-5.6-3.7-7.5"/>
			</g>
		</g>
		<g>
			<g>
				
					<linearGradient id="SVGID_00000163776716157579173540000002152960077369258152_" gradientUnits="userSpaceOnUse" x1="445.1671" y1="143.5555" x2="515.7418" y2="199.2655" gradientTransform="matrix(0.6196 -0.7849 -0.7849 -0.6196 -18.3827 701.9823)">
					<stop  offset="0.2435" style="stop-color:#49687E"/>
					<stop  offset="1" style="stop-color:#DFF1FD"/>
				</linearGradient>
				<path style="fill:url(#SVGID_00000163776716157579173540000002152960077369258152_);" d="M180.7,258.2c0,0-41.1-11.4-65.1-39.6
					s-25.3-43.9-25.3-43.9s37-8.8,70,26.1C193.4,235.7,217.6,279,180.7,258.2z"/>
				<path class="st10" d="M197.7,263.2c0,0-60.5-58.6-98.5-79.7"/>
				<path class="st10" d="M191.8,257.6c0,0-4.5-18.7-6.9-21.9"/>
				<path class="st10" d="M145.3,240.3c6.9,4.5,29.4,1.6,29.4,1.6s2.6-18.8,0-21.8"/>
				<path class="st10" d="M157.4,226.7c0,0,1.2-13.1-0.1-20.3"/>
				<path class="st10" d="M141.4,214.1c0,0,4.2-19.9,0.1-25.5"/>
				<path class="st10" d="M149.5,220.4c0,0-23.4,3.6-28.8-1.3"/>
				<path class="st10" d="M127.1,202.2c0,0,2.3-16.3-1.6-20.9"/>
				<path class="st10" d="M118.8,196.1c0,0-10.2,2.9-12.6,0.9"/>
			</g>
			<g>
				
					<linearGradient id="SVGID_00000150095688378032097320000010270951146354118332_" gradientUnits="userSpaceOnUse" x1="442.947" y1="228.987" x2="486.4096" y2="263.2953" gradientTransform="matrix(0.6196 -0.7849 -0.7849 -0.6196 -18.3827 701.9823)">
					<stop  offset="0.2435" style="stop-color:#49687E"/>
					<stop  offset="1" style="stop-color:#DFF1FD"/>
				</linearGradient>
				<path style="fill:url(#SVGID_00000150095688378032097320000010270951146354118332_);" d="M98.5,209.1c0,0-25.3-7-40.1-24.4
					s-15.6-27.1-15.6-27.1s22.8-5.4,43.1,16.1S121.2,221.9,98.5,209.1z"/>
				<path class="st10" d="M108.9,212.2c0,0-37.3-36.1-60.7-49.1"/>
				<path class="st10" d="M105.3,208.7c0,0-2.8-11.5-4.3-13.5"/>
				<path class="st10" d="M76.7,198.1c4.2,2.7,18.1,1,18.1,1s1.6-11.6,0-13.4"/>
				<path class="st10" d="M84.2,189.7c0,0,0.7-8.1,0-12.5"/>
				<path class="st10" d="M74.3,181.9c0,0,2.6-12.3,0-15.7"/>
				<path class="st10" d="M79.2,185.8c0,0-14.4,2.2-17.7-0.8"/>
				<path class="st10" d="M65.5,174.6c0,0,1.4-10.1-1-12.9"/>
				<path class="st10" d="M60.4,170.9c0,0-6.3,1.8-7.8,0.6"/>
			</g>
			<g>
				
					<linearGradient id="SVGID_00000119087465381393984640000001401419420360592039_" gradientUnits="userSpaceOnUse" x1="368.6877" y1="448.3456" x2="399.7756" y2="521.3822" gradientTransform="matrix(0.9201 -0.3916 -0.3916 -0.9201 -80.5161 749.5765)">
					<stop  offset="0.2435" style="stop-color:#49687E"/>
					<stop  offset="1" style="stop-color:#DFF1FD"/>
				</linearGradient>
				<path style="fill:url(#SVGID_00000119087465381393984640000001401419420360592039_);" d="M90.5,185.1c0,0-18.8-18.3-23.5-40.6
					s-0.7-31.2-0.7-31.2s22.6,6.2,30.1,34.8S104.3,207.2,90.5,185.1z"/>
				<path class="st10" d="M98.2,192.8c0,0-15.4-49.6-29.7-72.2"/>
				<path class="st10" d="M96.7,188.1c0,0,3.1-11.5,2.7-13.9"/>
				<path class="st10" d="M76.7,165c2.4,4.4,15.4,9.6,15.4,9.6s6.9-9.4,6.5-11.8"/>
				<path class="st10" d="M87.2,161.2c0,0,4.5-6.8,6-11"/>
				<path class="st10" d="M82.3,149.7c0,0,8.2-9.5,7.6-13.8"/>
				<path class="st10" d="M84.8,155.5c0,0-13.7-5-15.2-9.2"/>
				<path class="st10" d="M78.1,139c0,0,6-8.2,5.3-11.8"/>
				<path class="st10" d="M75.4,133.3c0,0-6.4-1.4-7.1-3.2"/>
			</g>
			<g>
				
					<linearGradient id="SVGID_00000000194224389379125820000008445431120737110174_" gradientUnits="userSpaceOnUse" x1="79.1195" y1="713.5695" x2="144.7559" y2="713.5695" gradientTransform="matrix(1 0 0 -1 0 892)">
					<stop  offset="0.191" style="stop-color:#6F89FF"/>
					<stop  offset="0.6581" style="stop-color:#8ABCF7"/>
				</linearGradient>
				<path style="fill:url(#SVGID_00000000194224389379125820000008445431120737110174_);" d="M105.3,240.1c0,0-24.8-53.1-26.1-78.1
					s13.5-19.5,19.1-1.6c5.7,17.9,19.1,5.7,3.5-19.1s7.8-47.5,15.6-32.2s-4.9,75.7,4,77.3s4.6-27.7,13.8-28.1s15.1,27.9,1.7,51.1
					S126,247.6,119.6,252C113.3,256.3,105.3,240.1,105.3,240.1z"/>
				<path class="st16" d="M112,233.4c0,0-6.5-22.9-4.2-33.4c2.3-10.4,4.2-30.6,4.2-30.6"/>
				<path class="st16" d="M107.3,202.7c0,0-10.6-13.5-10.6-20.1"/>
				<path class="st16" d="M107.3,211.8c0.5,1,27.4-19.7,27.9-29.2"/>
			</g>
			<g>
				
					<linearGradient id="SVGID_00000041275326326874302700000004564569655910902159_" gradientUnits="userSpaceOnUse" x1="420.1031" y1="-98.5549" x2="467.8206" y2="-90.8629" gradientTransform="matrix(0.1591 -0.9873 -0.9873 -0.1591 -34.8132 675.684)">
					<stop  offset="0.2435" style="stop-color:#49687E"/>
					<stop  offset="1" style="stop-color:#DFF1FD"/>
				</linearGradient>
				<path style="fill:url(#SVGID_00000041275326326874302700000004564569655910902159_);" d="M180.4,272.9c0,0-41.5,10-76.1-2.9
					s-43.5-26-43.5-26s28-25.7,73.9-11.3C180.5,247,222.7,273,180.4,272.9z"/>
				<path class="st10" d="M197.6,268.9c0,0-81.4-21.8-124.8-21.7"/>
				<path class="st10" d="M189.8,266.9c0,0-13.1-14.2-16.7-15.8"/>
				<path class="st10" d="M140.8,274.4c8.2,0.5,26.5-12.9,26.5-12.9s-6.9-17.7-10.6-19.1"/>
				<path class="st10" d="M144.8,256.6c0,0-5.4-12-9.9-17.7"/>
				<path class="st10" d="M124.6,253.4c0,0-6-19.5-12.4-22.3"/>
				<path class="st10" d="M134.7,255c0,0-18.7,14.6-25.8,12.9"/>
				<path class="st10" d="M106.4,250c0,0-6-15.4-11.6-17.5"/>
				<path class="st10" d="M96.1,248.7c0,0-7.5,7.5-10.6,7"/>
			</g>
		</g>
		<g>
			<path class="st18" d="M104.1,260.7c-1.1-1.3-2.2-2.3-3.5-3.3c-1.2-1-2.5-1.9-3.9-2.7s-2.8-1.5-4.3-2.1c-0.4-0.2-0.8-0.3-1.2-0.4
				l-0.6-0.2c-0.2-0.1-0.3-0.1-0.7-0.2c-1.3-0.4-2.7-0.4-3.9-0.3c-1.2,0.1-2.4,0.5-3.3,0.9c-1,0.4-1.9,0.9-2.7,1.4
				c-1.6,1-2.9,2.2-4.1,3.4c-1.2,1.2-2.3,2.4-3.3,3.7c-0.5,0.6-1,1.3-1.5,1.9l-0.7,1c-0.2,0.3-0.3,0.5-0.5,0.8
				c-2,2.4-3.9,4.8-5.9,7.3s-4,5-6,7.5s-3.9,5-5.9,7.6c-0.8,1-1.5,2-2.3,3v11.8c1.3,0,2.6-0.5,3.5-1.6c2.1-2.4,4.1-4.9,6.2-7.3
				c2-2.5,4.1-4.9,6.1-7.4s4-5,6-7.5s4-5,5.9-7.5l0.2-0.2l0.2-0.3l0.5-0.7l0.5-0.8c0.4-0.5,0.8-1.1,1.1-1.6c0.8-1,1.6-2,2.4-2.9
				s1.7-1.7,2.5-2.3c0.8-0.6,1.6-0.9,2-1c0.2,0,0.3-0.1,0.5,0c0,0,0.2,0,0.3,0.1l0.5,0.1c0.3,0.1,0.6,0.2,0.9,0.3
				c1.2,0.4,2.5,0.8,3.7,1.3c1.3,0.5,2.5,1,3.8,1.5s2.6,1.1,3.9,1.5l0.3,0.1c0.9,0.3,2,0.1,2.8-0.5
				C105,263.7,105.1,261.9,104.1,260.7z"/>
			<path class="st18" d="M185.8,254.1c-0.1-0.5-0.2-1.1-0.4-1.5c-0.4-1-1-1.8-1.6-2.5s-1.3-1.2-1.9-1.6c-0.7-0.4-1.3-0.8-1.9-1
				c-0.3-0.1-0.6-0.3-1-0.4l-0.5-0.2l-0.6-0.2c-1.7-0.4-3.5-0.5-5.1-0.1c-1.6,0.3-3.1,0.9-4.3,1.6c-1.3,0.7-2.4,1.5-3.4,2.3
				c-1,0.9-1.9,1.8-2.7,2.7c-0.4,0.5-0.8,0.9-1.2,1.4l-0.6,0.8c-0.2,0.3-0.3,0.5-0.6,0.9l-0.3,0.5l-0.2,0.6
				c-1.8,5.7-3.7,11.4-5.5,17.1l-2.4,7.8v14.8c0,0,0,0,0.1,0c2.3,0.8,4.9-0.4,5.8-2.7c1-2.8,2-5.6,3-8.5l2.9-8.5
				c1.8-5.5,3.6-10.9,5.3-16.4l0.3-0.5c0.3-0.3,0.5-0.7,0.8-1c0.5-0.7,1.1-1.3,1.7-1.8c1.2-1.1,2.4-1.8,3.3-2.1
				c0.4-0.1,0.8-0.2,1.2-0.1h0.2l0.3,0.1c0.2,0,0.4,0.1,0.5,0.1c0.3,0.1,0.7,0.2,0.9,0.3c0.6,0.2,0.9,0.3,1.1,0.1
				c0.1-0.1,0.2-0.1,0.4-0.1c0.1,0,0.2,0,0.2,0.1l0.1,0.1c0,0,0,0,0.1,0l0,0c0,0,0,0,0.1-0.1c-0.7,1.4-0.1,3.1,1.2,3.7
				c1.4,0.7,3.1,0.1,3.7-1.2l0.3-0.4l0.2-0.3c0.1-0.2,0.2-0.4,0.3-0.7c0.2-0.5,0.3-1,0.3-1.5C185.9,255.1,185.9,254.6,185.8,254.1z"
				/>
			<path class="st19" d="M58.3,276.5c-4.6,0-8.3,3.7-8.3,8.3v9.5l17.8-17.8H58.3z"/>
			<path class="st19" d="M82.7,276.5h-8.5l-24.3,24.3v3.3c0,3.6,2.3,6.7,5.5,7.8l33.1-33.1C87,277.4,85,276.5,82.7,276.5z"/>
			<path class="st20" d="M91.1,284.8c0-2.3-1-4.5-2.5-6l-33.1,33.1c0.9,0.3,1.8,0.5,2.8,0.5h10.8l22-22V284.8L91.1,284.8z"/>
			<path class="st19" d="M69.1,312.4h13.6c4.6,0,8.3-3.7,8.3-8.3v-13.6L69.1,312.4z"/>
			<polygon class="st20" points="67.7,276.5 49.9,294.3 49.9,300.8 74.2,276.5 			"/>
			<path class="st19" d="M120.3,276.5c-4.6,0-8.3,3.7-8.3,8.3v9.9l18.2-18.2L120.3,276.5L120.3,276.5z"/>
			<polygon class="st20" points="130.2,276.5 112,294.7 112,299.7 135.2,276.5 			"/>
			<path class="st19" d="M144.8,276.5h-9.6L112,299.7v4.4c0,3.4,2.1,6.4,5,7.6l33.2-33.2C148.7,277.3,146.8,276.5,144.8,276.5z"/>
			<path class="st20" d="M153.1,284.8c0-2.5-1.1-4.8-2.9-6.3L117,311.7c1,0.4,2.1,0.7,3.3,0.7h8.6l24.2-24.2V284.8z"/>
			<path class="st19" d="M128.9,312.4h15.9c4.6,0,8.3-3.7,8.3-8.3v-15.9L128.9,312.4z"/>
			<path class="st21" d="M82.7,312.4H58.3c-4.6,0-8.3-3.7-8.3-8.3v-19.3c0-4.6,3.7-8.3,8.3-8.3h24.5c4.6,0,8.3,3.7,8.3,8.3v19.3
				C91.1,308.7,87.3,312.4,82.7,312.4z"/>
			<path class="st21" d="M144.8,312.4h-24.5c-4.6,0-8.3-3.7-8.3-8.3v-19.3c0-4.6,3.7-8.3,8.3-8.3h24.5c4.6,0,8.3,3.7,8.3,8.3v19.3
				C153.1,308.7,149.3,312.4,144.8,312.4z"/>
			<path class="st21" d="M91.1,292.3c0,0,11.1-12,20.9,0"/>
		</g>
		<g>
			<g>
				<path class="st22" d="M302.1,261c2.3,1.8,6,3.9,10.9,4.3c2.4,0.2,4.6-1.1,5.5-3.3l2.2-5.4c-11.8,1-18-7.2-18-7.2l-2.2,5.4
					C299.6,257,300.3,259.5,302.1,261z"/>
				
					<rect x="286.9" y="210.5" transform="matrix(0.3718 -0.9283 0.9283 0.3718 6.2587 437.5403)" class="st23" width="79" height="7.3"/>
				
					<rect x="293.5" y="213.3" transform="matrix(0.3718 -0.9283 0.9283 0.3718 7.9585 445.2493)" class="st24" width="79" height="6.8"/>
				
					<rect x="281" y="209.1" transform="matrix(0.3718 -0.9283 0.9283 0.3718 4.7415 430.5927)" class="st25" width="79" height="5.3"/>
				<path class="st26" d="M332.8,174.1l15.3-12.1l2.7,19.3C350.8,181.4,341.2,183.6,332.8,174.1z"/>
				<path class="st27" d="M342.3,166.6c2.4,1.6,4.7,2.4,6.8,2.8l-1-7.4L342.3,166.6z"/>
				<path class="st27" d="M301.6,251.9c0,0,6.2,8.2,18,7.2l3.5-8.7c-11.8,1-18-7.2-18-7.2L301.6,251.9z"/>
			</g>
			<g>
				<path class="st22" d="M308.1,273.4c1.8,2.3,4.8,5.3,9.4,7c2.2,0.8,4.7,0.1,6.1-1.8l3.5-4.6c-11.6-2.1-15.5-11.6-15.5-11.6
					l-3.5,4.7C306.7,268.9,306.7,271.5,308.1,273.4z"/>
				
					<rect x="304.2" y="230.8" transform="matrix(0.5991 -0.8007 0.8007 0.5991 -49.9162 369.2127)" class="st23" width="79" height="7.3"/>
				
					<rect x="309.8" y="235.2" transform="matrix(0.5991 -0.8007 0.8007 0.5991 -50.9949 375.3308)" class="st24" width="79" height="6.8"/>
				
					<rect x="299.1" y="228" transform="matrix(0.5991 -0.8007 0.8007 0.5991 -48.9331 363.5822)" class="st25" width="79" height="5.3"/>
				<path class="st26" d="M360.1,197.5l17.9-7.7l-2.4,19.4C375.7,209.1,365.8,208.7,360.1,197.5z"/>
				<path class="st27" d="M371.3,192.6c1.9,2.1,4,3.5,5.8,4.5l0.9-7.4L371.3,192.6z"/>
				<path class="st27" d="M310,264.5c0,0,3.9,9.5,15.5,11.6l5.6-7.5c-11.6-2.1-15.5-11.6-15.5-11.6L310,264.5z"/>
			</g>
		</g>
		<g>
			<g>
				<path class="st28" d="M420.3,276.3l-6.1,22.6c-0.6,2.1-2.7,3.3-4.8,2.8l0,0c-2.1-0.6-3.3-2.7-2.8-4.8l6.1-22.6
					c0.6-2.1,2.7-3.3,4.8-2.8l0,0C419.6,272.1,420.9,274.2,420.3,276.3z"/>
				<path class="st29" d="M349.9,231.9c-19.8-5.3-40.3,6.8-44.9,27.1c-4.3,18.6,6.9,37.6,25.3,43c9.7,2.8,19.6,1.4,27.7-3.1
					c4.3-2.4,9.3-3.1,14.1-1.8l4.3,1.2c7.9,2.1,16.1-2.6,18.2-10.5l3.1-11.5c2.1-7.9-2.6-16.1-10.5-18.2l-4.3-1.2
					c-4.7-1.3-8.7-4.4-11.2-8.6C367,240.5,359.4,234.4,349.9,231.9z"/>
				<path class="st30" d="M335.5,231c2.6,0,5.3,0.4,8,1.1c8.4,2.2,15.1,7.6,19.2,14.5c2.2,3.7,5.8,6.4,9.9,7.6l3.8,1
					c7,1.9,11.2,9.1,9.3,16.1l-2.7,10.2c-1.9,7-9.1,11.2-16.1,9.3l-3.8-1c-4.2-1.1-8.6-0.5-12.4,1.6c-7.2,4-15.9,5.2-24.5,2.7
					c-10.4-3-18.2-11-21.4-20.7c2.4,13.2,12,24.7,25.6,28.6c9.7,2.8,19.6,1.4,27.7-3.1c4.3-2.4,9.3-3.1,14.1-1.8l4.3,1.2
					c7.9,2.1,16.1-2.6,18.2-10.5l3.1-11.5c2.1-7.9-2.6-16.1-10.5-18.2l-4.3-1.2c-4.7-1.3-8.7-4.4-11.2-8.6
					c-4.7-7.8-12.3-13.8-21.7-16.4C345.1,230.6,340.2,230.3,335.5,231z"/>
				<path class="st31" d="M390.7,289.3l-42.5-11.4c0,0,5.2,0.1,4.2-4.2c-1.1-4.3-11.8-0.7-6.1,1s12.2-6.4,6.1-10.6s-10,5.4-1,3.5
					s1.9-8.5,1.9-8.5l42.5,11.4"/>
				<path class="st32" d="M405.7,269.4l-7.6,28.2c-0.7,2.6-3.4,4.2-6,3.5l0,0c-2.6-0.7-4.2-3.4-3.5-6l7.6-28.2
					c0.7-2.6,3.4-4.2,6-3.5l0,0C404.9,264.1,406.4,266.8,405.7,269.4z"/>
				<path class="st32" d="M409.6,270.4l-7.6,28.2c-0.7,2.6-3.4,4.2-6,3.5l0,0c-2.6-0.7-4.2-3.4-3.5-6l7.6-28.2
					c0.7-2.6,3.4-4.2,6-3.5l0,0C408.7,265.1,410.3,267.8,409.6,270.4z"/>
				<path class="st32" d="M413.4,271.5l-7.6,28.2c-0.7,2.6-3.4,4.2-6,3.5l0,0c-2.6-0.7-4.2-3.4-3.5-6l7.6-28.2
					c0.7-2.6,3.4-4.2,6-3.5l0,0C412.6,266.2,414.1,268.9,413.4,271.5z"/>
				<path class="st32" d="M417.2,272.5l-7.6,28.2c-0.7,2.6-3.4,4.2-6,3.5l0,0c-2.6-0.7-4.2-3.4-3.5-6l7.6-28.2
					c0.7-2.6,3.4-4.2,6-3.5l0,0C416.4,267.2,417.9,269.9,417.2,272.5z"/>
				<path class="st28" d="M402.1,267.2l-8.2,30.4c-0.8,2.8-3.7,4.5-6.5,3.7l0,0c-2.8-0.8-4.5-3.7-3.7-6.5l8.2-30.4
					c0.8-2.8,3.7-4.5,6.5-3.7l0,0C401.2,261.5,402.9,264.4,402.1,267.2z"/>
				<path class="st33" d="M332.6,250.2L332.6,250.2c-0.9,3.3-4.4,5.3-7.7,4.4l-3.1-0.8c-3.3-0.9-5.3-4.4-4.4-7.7l0,0
					c0.9-3.3,4.4-5.3,7.7-4.4l3.1,0.8C331.5,243.4,333.5,246.9,332.6,250.2z"/>
				<path class="st33" d="M344.8,251.9L344.8,251.9c-0.7,2.5-3.3,4-5.8,3.4l0,0c-2.5-0.7-4-3.3-3.4-5.8l0,0c0.7-2.5,3.3-4,5.8-3.4
					l0,0C344,246.8,345.5,249.4,344.8,251.9z"/>
			</g>
			<path class="st32" d="M418.2,271.8l-3.9,14.6c-0.6,2.1-2.7,3.3-4.8,2.8c-0.1,0-0.1,0-0.1-0.1c-1,2-3.4,3.1-5.6,2.5
				c-0.7-0.2-1.3-0.5-1.8-0.9c-0.7,0.1-1.3,0.1-2-0.1s-1.3-0.5-1.8-0.9c-0.7,0.1-1.3,0.1-2-0.1s-1.3-0.5-1.8-0.9
				c-0.7,0.1-1.3,0.1-2-0.1l0,0c-0.2-0.1-0.4-0.1-0.6-0.2c-1.2,0.7-2.6,0.9-4.1,0.6c-1.7-0.4-2.9-1.7-3.5-3.2c-1,0.3-2,0.4-3.1,0.5
				c-1.5,0.1-3-0.1-4.4-0.5l-4.3-1.2c-0.6-0.2-1.2-0.3-1.8-0.4c-3.6-0.6-7.3-0.1-10.6,1.4c-0.6,0.2-1.1,0.5-1.6,0.8
				c-2.5,1.4-5.3,2.5-8.1,3.3c-1.1,0.3-2.3,0.6-3.4,0.8c-2.3,0.4-4.7,0.6-7.1,0.5c-1.2,0-2.4-0.1-3.6-0.3c-1.8-0.2-3.6-0.6-5.5-1.2
				c-0.8-0.2-1.5-0.5-2.2-0.7c-0.2-0.1-0.4-0.1-0.6-0.2c-0.7-0.3-1.4-0.5-2-0.8h-0.1c-0.7-0.3-1.4-0.7-2.1-1
				c-0.2-0.1-0.3-0.2-0.5-0.3c-0.6-0.3-1.2-0.7-1.8-1.1l-0.1-0.1c-0.6-0.4-1.3-0.9-1.9-1.3c-0.1-0.1-0.3-0.2-0.4-0.3
				c-0.6-0.4-1.1-0.9-1.7-1.3l-0.1-0.1c-0.6-0.5-1.2-1-1.7-1.6c-0.1-0.1-0.2-0.2-0.3-0.3c-0.5-0.5-1-1.1-1.5-1.6c0,0,0,0-0.1-0.1
				c-0.5-0.6-1-1.2-1.5-1.8c0-0.1-0.1-0.1-0.1-0.2c-0.5-0.6-0.9-1.2-1.3-1.9l0,0c-0.5-0.7-0.9-1.4-1.3-2.1c0,0,0-0.1-0.1-0.1
				c-2.1-3.6-3.5-7.6-4.2-11.7c-1.5,8.6,0.1,17.1,4.2,24.3c0,0,0,0.1,0.1,0.1c0.4,0.7,0.8,1.4,1.3,2.1l0,0c0.4,0.6,0.9,1.3,1.3,1.9
				c0,0.1,0.1,0.1,0.1,0.2c0.5,0.6,1,1.2,1.5,1.8c0,0,0,0,0.1,0.1c0.5,0.6,1,1.1,1.5,1.6c0.1,0.1,0.2,0.2,0.3,0.3
				c0.6,0.5,1.1,1.1,1.7,1.6l0.1,0.1c0.5,0.5,1.1,0.9,1.7,1.3c0.1,0.1,0.3,0.2,0.4,0.3c0.6,0.5,1.2,0.9,1.9,1.3l0.1,0.1
				c0.6,0.4,1.2,0.7,1.8,1.1c0.2,0.1,0.3,0.2,0.5,0.3c0.7,0.4,1.4,0.7,2.1,1h0.1c0.7,0.3,1.3,0.6,2,0.8c0.2,0.1,0.4,0.1,0.6,0.2
				c0.7,0.3,1.5,0.5,2.2,0.7c1.8,0.5,3.6,0.9,5.5,1.2c1.2,0.2,2.4,0.3,3.6,0.3c2.4,0.1,4.8-0.1,7.1-0.5c1.2-0.2,2.3-0.4,3.4-0.8
				c2.8-0.8,5.5-1.9,8.1-3.3c0.5-0.3,1.1-0.6,1.6-0.8c3.3-1.5,7-2,10.6-1.4c0.6,0.1,1.2,0.2,1.8,0.4l4.3,1.2c1.5,0.4,3,0.6,4.4,0.5
				c1.1,0,2.1-0.2,3.1-0.5c0.6,1.5,1.9,2.7,3.5,3.2c1.4,0.4,2.9,0.1,4.1-0.6c0.2,0.1,0.4,0.2,0.6,0.2l0,0c0.7,0.2,1.4,0.2,2,0.1
				c0.5,0.4,1.1,0.7,1.8,0.9s1.4,0.2,2,0.1c0.5,0.4,1.1,0.7,1.8,0.9s1.4,0.2,2,0.1c0.5,0.4,1.1,0.7,1.8,0.9c2.3,0.6,4.6-0.5,5.6-2.5
				c0,0,0.1,0,0.1,0.1c2.1,0.6,4.3-0.7,4.8-2.8l6.1-22.6C420.8,274.5,419.9,272.5,418.2,271.8z"/>
		</g>
		<g>
			<g>
				<path class="st34" d="M190.5,262.1c0,0,2.6-3.5,12.1-4.3c9.5-0.9,81.2,0,81.2,0s4.3,0.9,6.9,4.3c2.6,3.5,26.8,34.6,26.8,34.6
					s3.5,4.3,0,6.9s-142.5,0-142.5,0s-7.8,0.9-4.3-5.2C174.1,292.3,190.5,262.1,190.5,262.1z"/>
				<rect x="175" y="280.2" class="st35" width="136.5" height="18.1"/>
				<path class="st34" d="M190.5,242.2c0,0,2.6-3.5,12.1-4.3c9.5-0.9,81.2,0,81.2,0s4.3,0.9,6.9,4.3s26.8,34.6,26.8,34.6
					s3.5,4.3,0,6.9s-142.5,0-142.5,0s-7.8,0.9-4.3-5.2C174.1,272.4,190.5,242.2,190.5,242.2z"/>
				<g>
					<rect x="175" y="286.2" class="st36" width="136.5" height="0.9"/>
					<rect x="175" y="288.8" class="st36" width="136.5" height="0.9"/>
					<rect x="175" y="291.4" class="st36" width="136.5" height="0.9"/>
					<rect x="175" y="294" class="st36" width="136.5" height="0.9"/>
					<rect x="175" y="296.6" class="st36" width="136.5" height="0.9"/>
				</g>
			</g>
			<g>
				<path class="st37" d="M191,238.2c0,0,2.4-3.2,11.2-4s75.4,0,75.4,0s4,0.8,6.4,4s24.9,32.1,24.9,32.1s3.2,4,0,6.4
					s-132.4,0-132.4,0s-7.2,0.8-4-4.8C175.8,266.3,191,238.2,191,238.2z"/>
				<rect x="176.6" y="255" class="st35" width="126.8" height="16.9"/>
				<path class="st38" d="M191,219.7c0,0,2.4-3.2,11.2-4s75.4,0,75.4,0s4,0.8,6.4,4s24.9,32.1,24.9,32.1s3.2,4,0,6.4
					s-132.4,0-132.4,0s-7.2,0.8-4-4.8C175.8,247.8,191,219.7,191,219.7z"/>
				<g>
					<rect x="176.6" y="260.6" class="st36" width="126.8" height="0.8"/>
					<rect x="176.6" y="263" class="st36" width="126.8" height="0.8"/>
					<rect x="176.6" y="265.5" class="st36" width="126.8" height="0.8"/>
					<rect x="176.6" y="267.9" class="st36" width="126.8" height="0.8"/>
					<rect x="176.6" y="270.3" class="st36" width="126.8" height="0.8"/>
				</g>
			</g>
		</g>
		<g>
			<path class="st22" d="M282.8,317.4c0.9-3.5,1.5-8.7-0.3-14.6c-0.9-2.8-3.5-4.7-6.5-4.6l-7.2,0.2c6.9,13,0.5,24.2,0.5,24.2
				l7.3-0.2C279.5,322.2,282.1,320.3,282.8,317.4z"/>
			
				<rect x="168.1" y="307.9" transform="matrix(0.9998 -2.129487e-02 2.129487e-02 0.9998 -6.6045 4.6983)" class="st23" width="98.4" height="9.1"/>
			
				<rect x="167.9" y="299.4" transform="matrix(0.9998 -2.129487e-02 2.129487e-02 0.9998 -6.4171 4.6921)" class="st24" width="98.4" height="8.5"/>
			
				<rect x="168.2" y="317" transform="matrix(0.9998 -2.129487e-02 2.129487e-02 0.9998 -6.7716 4.7023)" class="st25" width="98.4" height="6.6"/>
			<path class="st26" d="M168.3,324.6L146.9,313l20.8-12.5C167.8,300.4,175,310.4,168.3,324.6z"/>
			<path class="st27" d="M154.9,317.3c0.6-3.5,0.4-6.6-0.1-9.1l-7.9,4.8L154.9,317.3z"/>
			<path class="st27" d="M272.7,322.4c0,0,6.4-11.1-0.5-24.2l-11.7,0.2c6.9,13,0.5,24.2,0.5,24.2L272.7,322.4z"/>
		</g>
		<g>
			<g>
				<ellipse class="st39" cx="240" cy="233.6" rx="44.7" ry="14.1"/>
				<ellipse class="st36" cx="240" cy="209.2" rx="44.7" ry="11.9"/>
				<rect x="195.3" y="209.2" class="st39" width="89.4" height="24.4"/>
				<path class="st40" d="M243.6,186.2c0,0-87.1,22.2-86.3,22.2s79.1,26.9,83.1,27.7s78.4-23,81.5-24.5
					C325.1,210,246.7,185.5,243.6,186.2z"/>
				<polygon class="st40" points="321.9,211.6 321.9,209.2 157.3,206 157.3,208.4 				"/>
				<path class="st27" d="M243.6,183.9c0,0-87.1,22.2-86.3,22.2s79.1,26.9,83.1,27.7s78.4-23,81.5-24.5
					C325.1,207.6,246.7,183.1,243.6,183.9z"/>
			</g>
			<path class="st39" d="M239.7,206.4v3.5l-79.8-0.7c0,0-2.2,0.3-3.1,3.5c-0.8,3.1,0.6,17.9,0.6,17.9s-2.5,3.1-3.9-1.2
				s0-20.2,0-20.2s0.9-3.2,5.1-2.8S239.7,206.4,239.7,206.4z"/>
			<path class="st39" d="M153.3,231.6c0,0-3.6,2.8-1.8,7c1.8,4.1,1.8,4.1,1.8,4.1l0.1-1.3l2.1,2.1l0.7-2.1l0.9,2.8
				c0,0,6.3-6.9-0.3-13.2C156.7,231.1,154.6,230.1,153.3,231.6z"/>
			<path class="st25" d="M247.5,207.9c0,1-2.6,1.9-5.8,1.9s-5.8-0.8-5.8-1.9s2.6-1.9,5.8-1.9S247.5,206.9,247.5,207.9z"/>
			<path class="st25" d="M157.4,231.1c0,1.3-1,2.3-2.3,2.3s-2.3-1-2.3-2.3s1-2.3,2.3-2.3S157.4,229.8,157.4,231.1z"/>
		</g>
		<g>
			<path class="st41" d="M230.8,106.4c0,0,0.3,2.1-2.3,4.7s-3.6,12.7,8.7,9S239.9,103.2,230.8,106.4z"/>
			<path class="st37" d="M231.2,120.4c0,0,5.4-2.2,10.1-1.3c0,0,2,6.4-1.1,8.5C237.1,129.8,229.9,127,231.2,120.4z"/>
			<g>
				<g>
					<path class="st28" d="M195.4,60l-8.9,2.2c-0.8,0.2-1.6-0.3-1.8-1.1l0,0c-0.2-0.8,0.3-1.6,1.1-1.8l8.9-2.2
						c0.8-0.2,1.6,0.3,1.8,1.1l0,0C196.8,58.9,196.3,59.8,195.4,60z"/>
					<path class="st42" d="M197.4,27.6c-1.9-7.8-9.9-12.5-17.6-10.3c-7.2,2-11.5,9.4-9.9,16.7c0.9,3.8,3.2,6.9,6.2,8.9
						c1.6,1,2.8,2.6,3.2,4.5l0.4,1.7c0.8,3.1,3.9,5,7,4.2l4.5-1.1c3.1-0.8,5-3.9,4.2-7l-0.4-1.7c-0.5-1.8-0.1-3.8,0.8-5.4
						C197.7,35,198.3,31.3,197.4,27.6z"/>
					<path class="st25" d="M195,22.5c0.5,0.9,0.9,1.9,1.1,2.9c0.8,3.3,0.2,6.6-1.4,9.3c-0.8,1.5-1.1,3.2-0.7,4.8l0.4,1.5
						c0.7,2.7-1,5.5-3.8,6.2l-4,1c-2.7,0.7-5.5-1-6.2-3.8l-0.4-1.5c-0.4-1.6-1.4-3-2.9-3.9c-2.7-1.7-4.8-4.5-5.5-7.9
						c-0.9-4.1,0.4-8.3,3.1-11.2c-4.1,3.3-6.2,8.7-5,14.1c0.9,3.8,3.2,6.9,6.2,8.9c1.6,1,2.8,2.6,3.2,4.5l0.4,1.7
						c0.8,3.1,3.9,5,7,4.2l4.5-1.1c3.1-0.8,5-3.9,4.2-7l-0.4-1.7c-0.5-1.8-0.1-3.8,0.8-5.4c1.8-3.1,2.4-6.8,1.5-10.5
						C197,25.7,196.1,24,195,22.5z"/>
					<path class="st43" d="M185.5,52.3l-4.1-16.7c0,0,0.9,1.8,2.2,0.6s-2-4.2-1.5-1.9s4.5,3,4.8,0.1s-3.7-2.4-1.4,0.3
						s3.2-0.9,3.2-0.9l4.1,16.7"/>
					<path class="st32" d="M195.1,53.7L184,56.4c-1,0.2-2.1-0.4-2.3-1.4l0,0c-0.2-1,0.4-2.1,1.4-2.3l11.1-2.7c1-0.2,2.1,0.4,2.3,1.4
						l0,0C196.7,52.4,196.1,53.4,195.1,53.7z"/>
					<path class="st32" d="M195.4,55.2l-11.1,2.7c-1,0.2-2.1-0.4-2.3-1.4l0,0c-0.2-1,0.4-2.1,1.4-2.3l11.1-2.7
						c1-0.2,2.1,0.4,2.3,1.4l0,0C197.1,53.9,196.5,54.9,195.4,55.2z"/>
					<path class="st32" d="M195.8,56.7l-11.1,2.7c-1,0.2-2.1-0.4-2.3-1.4l0,0c-0.2-1,0.4-2.1,1.4-2.3l11.1-2.7
						c1-0.2,2.1,0.4,2.3,1.4l0,0C197.4,55.4,196.8,56.4,195.8,56.7z"/>
					<path class="st32" d="M196.2,58.2l-11.1,2.7c-1,0.2-2.1-0.4-2.3-1.4l0,0c-0.2-1,0.4-2.1,1.4-2.3l11.1-2.7
						c1-0.2,2.1,0.4,2.3,1.4l0,0C197.8,56.9,197.2,57.9,196.2,58.2z"/>
					<path class="st28" d="M195.1,52l-11.9,2.9c-1.1,0.3-2.2-0.4-2.5-1.5l0,0c-0.3-1.1,0.4-2.2,1.5-2.5l11.9-2.9
						c1.1-0.3,2.2,0.4,2.5,1.5l0,0C196.9,50.6,196.2,51.8,195.1,52z"/>
					<path class="st44" d="M187.9,25.1L187.9,25.1c-1.3,0.3-2.6-0.5-3-1.8l-0.3-1.2c-0.3-1.3,0.5-2.6,1.8-3l0,0
						c1.3-0.3,2.6,0.5,3,1.8l0.3,1.2C190,23.5,189.2,24.8,187.9,25.1z"/>
					<path class="st44" d="M189.6,29.6L189.6,29.6c-1,0.2-2-0.4-2.2-1.4l0,0c-0.2-1,0.4-2,1.4-2.2l0,0c1-0.2,2,0.4,2.2,1.4l0,0
						C191.2,28.4,190.6,29.4,189.6,29.6z"/>
				</g>
				<path class="st32" d="M196.6,58.4l-5.7,1.4c-0.8,0.2-1.6-0.3-1.8-1.1c0,0,0,0,0-0.1c-0.9,0-1.7-0.6-1.9-1.5
					c-0.1-0.3-0.1-0.5,0-0.8c-0.2-0.2-0.3-0.4-0.3-0.7s-0.1-0.5,0-0.8c-0.2-0.2-0.3-0.4-0.3-0.7c-0.1-0.3-0.1-0.5,0-0.8
					c-0.2-0.2-0.3-0.4-0.3-0.7l0,0c0-0.1,0-0.2,0-0.3c-0.5-0.3-0.8-0.7-0.9-1.3c-0.2-0.7,0-1.3,0.4-1.8c-0.3-0.3-0.5-0.6-0.7-1
					c-0.3-0.5-0.5-1-0.7-1.6l-0.4-1.7c-0.1-0.2-0.1-0.5-0.2-0.7c-0.5-1.3-1.3-2.5-2.5-3.4c-0.2-0.1-0.4-0.3-0.6-0.4
					c-1-0.6-1.8-1.3-2.6-2.2c-0.3-0.3-0.6-0.7-0.9-1c-0.6-0.7-1.1-1.5-1.5-2.3c-0.2-0.4-0.4-0.8-0.6-1.3c-0.3-0.7-0.5-1.4-0.6-2.1
					c-0.1-0.3-0.1-0.6-0.2-0.9c0-0.1,0-0.2,0-0.2c0-0.3-0.1-0.6-0.1-0.9l0,0c0-0.3,0-0.6,0-0.9c0-0.1,0-0.1,0-0.2c0-0.3,0-0.6,0-0.8
					c0,0,0,0,0-0.1c0-0.3,0.1-0.6,0.1-0.9c0-0.1,0-0.1,0-0.2c0-0.3,0.1-0.6,0.1-0.8c0,0,0,0,0-0.1c0.1-0.3,0.1-0.6,0.2-0.9v-0.1
					c0.1-0.3,0.2-0.6,0.3-0.8l0,0c0.1-0.3,0.2-0.6,0.3-0.9v-0.1c0.1-0.3,0.3-0.5,0.4-0.8l0,0c0.1-0.3,0.3-0.6,0.5-0.8l0,0
					c0.9-1.4,1.9-2.6,3.2-3.6c-3.2,1.1-5.8,3.3-7.5,6l0,0c-0.2,0.3-0.3,0.5-0.5,0.8l0,0c-0.1,0.3-0.3,0.5-0.4,0.8v0.1
					c-0.1,0.3-0.2,0.6-0.3,0.9l0,0c-0.1,0.3-0.2,0.5-0.3,0.8V27c-0.1,0.3-0.2,0.6-0.2,0.9c0,0,0,0,0,0.1c-0.1,0.3-0.1,0.5-0.1,0.8
					c0,0.1,0,0.1,0,0.2c0,0.3-0.1,0.6-0.1,0.9c0,0,0,0,0,0.1c0,0.3,0,0.6,0,0.8c0,0.1,0,0.1,0,0.2c0,0.3,0,0.6,0,0.9l0,0
					c0,0.3,0.1,0.6,0.1,0.9c0,0.1,0,0.2,0,0.2c0,0.3,0.1,0.6,0.2,0.9c0.2,0.7,0.4,1.4,0.6,2.1c0.2,0.4,0.4,0.9,0.6,1.3
					c0.4,0.8,0.9,1.6,1.5,2.3c0.3,0.4,0.6,0.7,0.9,1c0.8,0.8,1.7,1.5,2.6,2.2c0.2,0.1,0.4,0.3,0.6,0.4c1.1,0.9,2,2,2.5,3.4
					c0.1,0.2,0.1,0.5,0.2,0.7l0.4,1.7c0.1,0.6,0.4,1.1,0.7,1.6c0.2,0.4,0.5,0.7,0.7,1c-0.4,0.5-0.6,1.1-0.4,1.8
					c0.1,0.6,0.5,1,0.9,1.3c0,0.1,0,0.2,0,0.3l0,0c0.1,0.3,0.2,0.5,0.3,0.7c0,0.3,0,0.5,0,0.8c0.1,0.3,0.2,0.5,0.3,0.7
					c0,0.3,0,0.5,0,0.8s0.2,0.5,0.3,0.7c0,0.3,0,0.5,0,0.8c0.2,0.9,1,1.5,1.9,1.5c0,0,0,0,0,0.1c0.2,0.8,1,1.3,1.8,1.1l8.9-2.2
					C196.2,59.8,196.6,59.1,196.6,58.4z"/>
			</g>
			<path class="st22" d="M235.6,187.8c0,0-3.5,5.1-2.7,6c0.9,0.9,4.7-2.1,5.8-3.5s-0.1-3.5-0.1-3.5L235.6,187.8z"/>
			<path class="st26" d="M233.5,160.9c0,0,1,12.8,1.4,14.3c0.4,1.6,0.3,12.1,0.8,13.4c0.6,1.2,3.1-0.7,3.1-1.5s1.5-7.9,1.7-9.6
				c0.1-1.8,2.1-11.8,2.2-14.5C242.8,160.1,236.7,156.2,233.5,160.9z"/>
			<path class="st22" d="M261.8,176.7c0,0,2.7,5.6,3.9,5.3c1.2-0.3,0.5-5.1-0.2-6.7s-3.1-1.6-3.1-1.6L261.8,176.7z"/>
			<g>
				<path class="st26" d="M252.1,155.4c0,4.6,0,7.5,1.5,11.8c0.7,2,8.5,5.8,10.1,7.6s-0.2,2.6-2.4,2.1s-9.1-3.8-11.6-5.6
					c-2-1.4-5.7-7.1-5.6-11.9C244,154.6,248.6,152.9,252.1,155.4z"/>
			</g>
			<path class="st27" d="M231.4,120.9c0,0-9.3-2-10.5-3.5s-6.7-8.8-8.5-8.6c-1.8,0.1-2.3,1.1-2.3,2.3s7.4,10.2,8.2,10.9
				s10.6,7,11.9,6.5C231.5,128.1,233.4,121.4,231.4,120.9z"/>
			<path class="st26" d="M257.1,142.8c0,0-1,3.2,0.1,3.8s1.7-0.1,1.7-0.1s1.8,1.6,2.5,0.2s-0.1-4.6-2.7-5.1
				C258.8,141.6,257.4,141.6,257.1,142.8z"/>
			<path class="st27" d="M241.5,127.3c0,0,8.7,3.9,9.6,5.7s4.7,10,6.5,10.2c1.8,0.2,2.5-0.6,2.7-1.7c0.2-1.1-5.1-11.5-5.7-12.4
				s-8.9-9-10.3-8.9C242.9,120.3,239.6,126.4,241.5,127.3z"/>
			<path class="st27" d="M228.5,122.7c0,0,0.6,12.1,2.6,14.5c0,0,0.8,1.8,0.8,6.3c0,4.6-2.4,12.2,0.3,20c0,0,22.9,1.8,23-6.4
				c0.1-5.2-3.4-12-6.5-15.8c-2.7-3.2-1.3-4.4-2.2-8.4c0,0,0,0,0-0.1c-0.5-2.1-0.8-11.1-1.5-12.2s-3.5-1.5-3.5-1.5s-2.1,6.7-4.2,6.6
				c-2.1-0.1-5.8-5.3-5.8-5.3S229,120.9,228.5,122.7z"/>
			<path class="st26" d="M211.9,109c0,0,1.3-3.7,0-4.4s-1.9,0-1.9,0s-2.1-1.9-2.9-0.3c-0.8,1.6-0.1,5.3,2.9,6
				C210,110.3,211.5,110.4,211.9,109z"/>
			<path class="st26" d="M235.2,120.2v-2c0,0-4.2-0.2-4.4-3.2s0-1.5,0-1.5s-1.5-0.5-1.5-1s1.8-2.1,1.8-2.1s0.9-6,5.7-6.3
				c4.7-0.2,6.7,3.7,6.5,7s-2.5,6.3-3.5,6.4s-0.3,2.6-0.3,2.6S236.6,122.4,235.2,120.2z"/>
			<path class="st22" d="M236,101.7c0,0-7.1,1.2-5.4,4.3c1.7,3.1,6.7,3.3,6.7,3.3s0.1,2.8,1.9,3.6c0,0,1.6,4.2-1.9,8.6
				s7.1,6.2,9.1-3.9s-1.7-13.7-4.8-14.4c-3.2-0.7-3.9,0-3.9,0S236.9,101.5,236,101.7z"/>
			<path class="st45" d="M189.3,61.4c0,0,2.9,36.9,20,44.9s20.2,19.9,9.9,25.5"/>
		</g>
		<g>
			<path class="st46" d="M179.7,180.3c-0.7,0.7-1.1,1.6-1.3,2.5c-0.5,3-1.8,11.5-2.5,11.6c-0.9,0.2-11.3,4.8-11.3,5
				c0,0.3,0.3,2.8,4.1,1.9c3.9-0.8,10.9-3.6,11.5-4.3c0.5-0.7,2.7-11.3,2.3-13.5C182.2,181.8,181.5,178.5,179.7,180.3z"/>
			<g>
				<path class="st26" d="M162.6,219.3c0,0-0.7,3.6-1.4,4.1s-2.5-0.1-2.6-1.4s1.3-5.4,1.3-5.4S162,216.6,162.6,219.3z"/>
				<path class="st47" d="M182.5,199.9c0,0-18.5-1-20.1,1.5c-1.6,2.4-1.4,5,5.7,4.8c7.1-0.2,14.9,1,15.8-1.6
					C184.9,202.1,182.5,199.9,182.5,199.9z"/>
				<path class="st47" d="M163.7,201.2c0,0-1.2-0.4-2,2.3s-3.8,15.7-3.5,16s3.5,1.9,5.6,1.6c0,0,2.8-12.1,3.2-14.2
					C167.4,204.9,166.5,200.9,163.7,201.2z"/>
				<g>
					<g>
						<path class="st22" d="M162.1,222.3c0,0,0.2,2.1-1.6,4s-10.5-3.6-10.9-6.4s8.8,0.4,8.8,0.4S159.6,222.3,162.1,222.3z"/>
						<path class="st48" d="M155.8,221.4c-3.2-2.6-5.6-2.4-5.8-2.3c-0.3,0.2-0.5,0.5-0.4,0.9c0.3,2.6,7.8,7.5,10.4,6.7
							C161.3,225.5,159,224,155.8,221.4z"/>
					</g>
				</g>
			</g>
			<path class="st22" d="M186.3,177.3c3.6-1,7.2,1.5,7.6,5.2c0.7,6.8,1.1,18.2-3.1,21.9c-6.2,5.5-13.8,3.7-13.8,3.7s2.8-23.4,2.7-27
				C179.6,180.2,181.9,178.5,186.3,177.3z"/>
			<g>
				<path class="st26" d="M171.1,223.1c0,0-0.7,3.6-1.4,4.1s-2.5-0.1-2.6-1.4s1.3-5.4,1.3-5.4S170.5,220.3,171.1,223.1z"/>
				<path class="st37" d="M190.9,203.5c0,0,0.6,7-6.8,6.7c-7.4-0.3-13.8,0.1-13.8-1.3s-1.5-5,6.4-5.9
					C184.5,202,190.9,203.5,190.9,203.5z"/>
				<path class="st37" d="M172.2,204.2c0,0-1.2-0.4-2,2.3s-3.8,15.7-3.5,16s3.5,1.9,5.6,1.6c0,0,2.8-12.1,3.2-14.2
					S175,203.8,172.2,204.2z"/>
				<g>
					<g>
						<path class="st22" d="M170.7,226.2c0,0,0.2,2.1-1.6,4s-10.5-3.6-10.9-6.4s8.8,0.4,8.8,0.4S168.2,226.2,170.7,226.2z"/>
						<path class="st48" d="M164.4,225.2c-3.2-2.6-5.6-2.4-5.8-2.3c-0.3,0.2-0.5,0.5-0.4,0.9c0.3,2.6,7.8,7.5,10.4,6.7
							C169.9,229.4,167.6,227.9,164.4,225.2z"/>
					</g>
				</g>
			</g>
			<path class="st26" d="M183.6,179.6l-0.9-2.2c0,0-4.8,1.7-6.5-1.6s-1.7-5.4-1.7-5.4s-1.7-7.3,3.5-9.8c5.3-2.5,9.4,1.2,10.7,5
				s0,8.3-1,9c-1,0.6,0.8,3.1,0.8,3.1S186.2,181.4,183.6,179.6z"/>
			<path class="st27" d="M182.8,164.6c0,0-6.1,3.6-9.6,2.3c-3.6-1.3-3.2-5.2-1.6-6.2c1.7-1,2.2,0,2.2,0s2-1.5,2.5-0.5
				c0,0,5.5-2.1,6.5-1.6s1,0.5,1,0.5s-1.3-1.2-0.7-1.3s1.4,0.8,1.4,0.8s2.3-0.1,2.1,0.3c-0.2,0.5-1.1,0.7-1.1,0.7s3.2,1.5,3.6,6.5
				c0.4,5,0,5.9,0,5.9s-0.1,4.7-1.9,3.2s0.1-3.7,0.1-4.2s0.7-2.7-0.2-3.5s-1.7,0.7-1.7,0.7s0.8,2.2,0.4,2.4
				c-0.3,0.2-1.4-0.1-1.5-0.8s-0.2-2.1-0.3-2.4s-1.4-0.8-1.5-1.2C182.6,166,182.8,164.6,182.8,164.6z"/>
			<polygon class="st28" points="177,205.1 188,201.6 175.8,198.5 161.7,201.3 			"/>
			<path class="st48" d="M190.3,180.1c0,0-1.8,12.5-2.7,12.7s-11.3,4.8-11.3,5s0.3,2.8,4.1,1.9s10.9-3.6,11.5-4.3
				c0.5-0.7,2.7-11.3,2.3-13.5C193.9,179.7,190.5,178.8,190.3,180.1z"/>
			<path class="st26" d="M177,197.9c0,0-3.5-0.2-4.1,1.1s0.3,2.6,2,2.5c1.8,0,4.1-1.6,3.8-2.2C178.6,198.9,177.5,198.1,177,197.9z"
				/>
			<polygon class="st32" points="159.2,188 175.9,191.6 177,205.1 161.7,201.3 			"/>
		</g>
		<g>
			<path class="st26" d="M48.3,255.1l-2.1,1.8c0,0-3.1,0.1-4.2,0.4s-3.1,1.5-2.8,1.9c0,0-1.5,1.6-1.1,1.9c0,0,0.2,1.1,0.8,1.1
				c0,0,0.5,0.8,1.5,0.6c0,0,1.6-1.2,2.8-1.2s1.9,0.1,1.9,0.1s-1.8,0.4-2.3,1.1c-0.5,0.8-0.5,1.2-0.2,1.4s1.6-0.9,2.7-0.9
				s3.1-1.3,3-2.5c0-1.2,2.4-2.9,3-3.8C52,256,49.5,254.1,48.3,255.1z"/>
			<path class="st24" d="M86.8,247.8c0,0,2.4,8,3.7,8.4c1.3,0.4,5.4-10.2,5.4-10.2s0.9-1.4,4.2,0s-6.9,18-8.4,18s-9.5-3.9-8.9-6.8
				C83.3,254.1,84.7,247.8,86.8,247.8z"/>
			<g>
				<path class="st26" d="M73.9,312.9c0,0-0.5,3.1,0.3,4.2s1.9,0.5,2.2-0.6s0.3-4.4,0.3-4.4S74.8,311.5,73.9,312.9z"/>
				<g>
					<g>
						<path class="st47" d="M77.2,315.7c0.5-0.2,1-0.2,1.5,0c1.6,0.6,4.5,1.6,5.6,1.8c1.5,0.3,4.1,1.5,4.3,3
							c0.1,1.5-9.9,0.8-11.4,0.7c-1.5-0.1-3.9,0.2-4-0.8c-0.1-0.7-0.1-2.8,0-4.1c0-0.5,0.5-0.9,1-0.8
							C75.1,315.7,76.4,316,77.2,315.7z"/>
					</g>
				</g>
			</g>
			<g>
				<path class="st26" d="M54.1,312.1c0,0-1.3,2.9-0.8,4.2c0.4,1.3,1.7,1,2.3,0s1.5-4.2,1.5-4.2S55.3,311,54.1,312.1z"/>
				<g>
					<g>
						<path class="st47" d="M55.8,315.3c0.5-0.2,1-0.2,1.5,0c1.6,0.6,4.5,1.6,5.6,1.8c1.5,0.3,4.1,1.5,4.3,3
							c0.1,1.5-9.9,0.8-11.4,0.7c-1.5-0.1-3.9,0.2-4-0.8c-0.1-0.7-0.1-2.8,0-4.1c0-0.5,0.5-0.9,1-0.8
							C53.7,315.4,55,315.6,55.8,315.3z"/>
					</g>
				</g>
			</g>
			<g>
				<path class="st48" d="M60.3,266c0,0,0.9,5.7,3.2,7.9c0,0,13.6,15,14.3,17.8c0.7,2.9-4.4,21.8-4.5,22s3.8,0.4,4.1-1.4
					c0.4-1.8,6.6-21.3,6.2-22.7S72,271.3,72,271.3s0.6-5.5-0.5-7.1C70.4,262.6,60.3,266,60.3,266z"/>
				<path class="st22" d="M72,264.8c0,0-11.6,0.6-11.7,2.4l2.4,29.5l-9.4,16.1c0,0,1.5,1.8,3.7,0.9c2.2-2.9,11.6-14.5,12.4-16.8
					s-1.1-22.3-1.1-22.3s3.8-2.3,3.9-4.2C72.2,268.4,72,264.8,72,264.8z"/>
			</g>
			<path class="st49" d="M81,242.2c0,0-8.4-2.4-9.6-0.6c-1.2,1.9-9.7,23.4-8.4,25.6c1.3,2.2,7.8,6,9.4,4.8s13.9-20.1,14.6-21.9
				s-0.9-4.9-2.5-5.8C82.9,243.4,81,242.2,81,242.2z"/>
			<path class="st23" d="M74.4,257.3c0,0-4.5,12.2-6.9,14.5c0,0-4.9,0.5-7.8-5.1c0,0,5.3-12.3,5.9-14.1s4.8-11,4.8-11
				s0.8-3.1,10.6,0.6L74.4,257.3z"/>
			<path class="st23" d="M75.5,260.1c0,0-3.4,11.4-3.3,12s0.7,1.6,1.9,2.5s8.5-17.4,8.5-17.4s4.9-6.1,4.5-7.5
				c-0.3-1.4-0.2-3.7-0.2-3.7s-2.4-0.5-4.4,3C80.7,252.4,75.5,260.1,75.5,260.1z"/>
			<path class="st26" d="M84.8,245.8l0.9-2.3c0,0,5,1.8,6.7-1.6s1.8-5.6,1.8-5.6s1.8-7.6-3.7-10.2s-9.7,1.2-11.1,5.2s0,8.6,1,9.3
				s-0.9,3.3-0.9,3.3S82.1,247.7,84.8,245.8z"/>
			<path class="st27" d="M85.7,230.2c0,0,6.3,3.8,10,2.4s3.4-5.4,1.6-6.4c-1.7-1.1-2.3,0-2.3,0s-2-1.5-2.6-0.5c0,0-5.7-2.2-6.8-1.7
				c-1.1,0.5-1.1,0.5-1.1,0.5s1.4-1.2,0.7-1.4c-0.6-0.1-1.5,0.9-1.5,0.9s-2.4-0.1-2.2,0.4c0.2,0.5,1.1,0.7,1.1,0.7s-3.4,1.6-3.8,6.7
				s0,6.1,0,6.1s0.1,4.9,1.9,3.3c1.8-1.5-0.1-3.8-0.1-4.3s-0.7-2.8,0.2-3.6c0.9-0.9,1.8,0.7,1.8,0.7s-0.8,2.3-0.5,2.5
				s1.4-0.1,1.6-0.9c0.1-0.7,0.2-2.2,0.4-2.5c0.1-0.3,1.4-0.9,1.6-1.2C85.9,231.7,85.7,230.2,85.7,230.2z"/>
			<path class="st24" d="M81.5,241.3c0,0-4-0.2-4.1,0.1c-0.2,0.3,1,2.4,1,2.4s-4.6,6.5-4.4,9.9c0.3,3.3,0,5.2,0,5.2
				S81.9,242.5,81.5,241.3z"/>
			<path class="st24" d="M85.3,243.6c0,0,2.5,3.1,2.3,3.4s-2.6,0.6-2.6,0.6s-2.6,7.6-5.4,9.3c-2.8,1.8-4.2,3.1-4.2,3.1
				S84.2,244.1,85.3,243.6z"/>
			<path class="st25" d="M71.3,241c0,0-13.1,2.8-14.3,3.7s-10.6,10-10.6,10s1.1,4.3,4.4,3.5c3.2-0.7,6.8-7.9,8.1-7.9
				s12-3.1,13.6-3.7C74,246.1,73.5,240.5,71.3,241z"/>
			<path class="st26" d="M97.2,247.5l0.5-2c0,0-1.3-1.3-1.3-1.8s0.7-3.1,1.3-3.1c0.7,0,3.7-1.7,4.3-0.4s0,1.3,0,1.3s1,1.2,0.3,2.2
				c0,0-0.1,1.3-0.3,1.8c-0.2,0.5-1.7,0.8-1.7,0.8l-0.5,1.7C99.7,248.1,97.6,249.7,97.2,247.5z"/>
			<g>
				<g>
					<path class="st27" d="M99.5,241.6L99.5,241.6c-0.4,0-0.6-0.3-0.6-0.6v-5.2c0-0.4,0.3-0.6,0.6-0.6l0,0c0.4,0,0.6,0.3,0.6,0.6
						v5.2C100.1,241.3,99.8,241.6,99.5,241.6z"/>
					<circle class="st27" cx="99.5" cy="235.5" r="3.4"/>
				</g>
				<circle class="st50" cx="99.5" cy="235.5" r="2.4"/>
			</g>
		</g>
		<g>
			<g>
				<path class="st51" d="M328.8,248.9c0,0,2.3,9,4.6,10.4s10.2-3.8,10.2-3.8s0.4-2.7,1.1-3.1s1.9,0.7,1.9,0.7s4.1-3.1,5.2-3.2
					s-2.1,3-2.1,3s0.1,3-1,3.8c-1.1,0.8-3.8,1.3-3.8,1.3s-6.8,7-11.6,6.7s-11.2-12.1-11.2-12.1S325.4,247.7,328.8,248.9z"/>
				<path class="st52" d="M340.4,300.3l1.4,3.1l3.9-1l-3.2-4.5C342.5,298,338.9,297.2,340.4,300.3z"/>
				<path class="st24" d="M320.1,267.6c0,0,11.8,3,16,9.2c4.2,6.3,9.3,21.9,9.3,21.9l-6,3.2L329,283l-13.7-7.6
					C315.3,275.4,316,266.3,320.1,267.6z"/>
				<polygon class="st35" points="343,254.7 342.1,258.6 350.6,253.3 351.3,249.4 				"/>
				<path class="st48" d="M320.7,246.6c0,0,3.6-4.9,6.5-2.6c3,2.4,4,6.4,4,6.4l-7.2,5.3C323.9,255.8,319.8,254.8,320.7,246.6z"/>
				<path class="st52" d="M325.3,239.6c0,0,2-0.1,2.2-1.5s0.9-9.1,8.8-7.6c5.7,1,5.8,6.3,5.8,7.7s-2,6.2-1.7,7.3s-2.1,0-2.1,0
					s-2.4,3.2-3.2,3.4c-0.8,0.2-4.8-2.6-4.9-4c-0.2-2.4-2.5,1.2-3.6,0.9C325.5,245.3,323.7,241.7,325.3,239.6z"/>
				<path class="st22" d="M325.3,239.6c0,0-14.4,0.8-17.2,14.8c-2.8,14,0,22.6,0,22.6s8.5,0.6,12.4-0.7c4-1.3-2.4-11.2,5.1-18.4
					C331.7,252.2,325.3,239.6,325.3,239.6z"/>
				<path class="st52" d="M326.9,251.7c0,0,2.3,9,4.6,10.4s10.2-3.8,10.2-3.8s0.4-2.7,1.1-3.1s1.9,0.7,1.9,0.7s4.1-3.1,5.2-3.2
					s-2.1,3-2.1,3s0.1,3-1,3.8s-3.8,1.3-3.8,1.3s-6.8,7-11.6,6.7s-11.2-12.1-11.2-12.1S323.4,250.4,326.9,251.7z"/>
				<path class="st48" d="M317,248.1c0,0,3.6-4.9,6.5-2.6c3,2.4,4,6.4,4,6.4l-7.2,5.3C320.2,257.2,316.1,256.2,317,248.1z"/>
				<path class="st52" d="M334,303.2l1.4,3.1l3.9-1l-3.2-4.5C336.1,300.9,332.6,300.1,334,303.2z"/>
				<path class="st25" d="M313.7,270.5c0,0,11.8,3,16,9.2c4.2,6.3,9.3,21.9,9.3,21.9l-6,3.2l-10.4-18.9l-13.7-7.6c0,0-1.6-2-1.2-3.7
					C308.3,272.1,311.3,269.7,313.7,270.5z"/>
				<path class="st34" d="M334.9,305.8c0,0,2.7,0.2,4.5-0.9c0,0,7.1,4.2,8.6,4.7c1.5,0.6,1.4,2.5,0,2.5s-12.5-1-13.1-1.7
					C334.3,309.9,334,306.5,334.9,305.8z"/>
				<path class="st34" d="M341.1,302.2c0,0,2.7,0.2,4.5-0.9c0,0,7.1,4.2,8.6,4.7c1.5,0.6,1.4,2.5,0,2.5s-12.5-1-13.1-1.7
					C340.5,306.2,340.3,302.9,341.1,302.2z"/>
				<path class="st34" d="M326.8,239.1c0,0-1,0.8-0.4-2.6s3.5-7.3,4.3-7.2c0,0-1.6-0.8-0.7-1.1s1.8,0.2,1.8,0.2s1.8-1.7,2.2-1
					c0.4,0.7-0.6,1.3-0.6,1.3s2.7-1.3,4.9,0.9c2.2,2.2,5.1,3,5.1,3s2.1-0.4,2.3,1.9s-1.8,1.3-1.8,1.3s3,1.8,0.9,3.3
					c-2,1.5-2.8,0.9-4.4,0.5c-1.6-0.5-2-1.4-2.8-1.6s-2.5,0-2.5,0s-1,2.8-1.7,2.6c-0.6-0.1-1.2-0.3-0.9-1.2c0.4-0.9,1.2-2.1,0.9-2.7
					s-2.9-0.5-3.1,1.7c-0.2,2.3-2.2,3.3-2.8,2.8C326.9,241,326.8,239.1,326.8,239.1z"/>
			</g>
		</g>
	</g>
</g>
</svg>
