<?xml version="1.0" encoding="utf-8"?>
<!-- Generator: Adobe Illustrator 27.0.0, SVG Export Plug-In . SVG Version: 6.00 Build 0)  -->
<svg version="1.1" id="Layer_1" xmlns="http://www.w3.org/2000/svg" xmlns:xlink="http://www.w3.org/1999/xlink" x="0px" y="0px"
	 viewBox="0 0 400.2 118.4" style="enable-background:new 0 0 400.2 118.4;" xml:space="preserve">
<style type="text/css">
	.st0{fill:#FFFFFF;}
	.st1{fill:#A6A6A6;}
	.st2{fill:url(#SVGID_1_);}
</style>
<g transform="scale(4.00216 4.0011)">
	<path class="st0" d="M99.4,26.1c0,1.6-1.3,2.8-2.8,2.8l0,0h-93c-1.6,0-2.8-1.3-2.8-2.8V3.5c0-1.6,1.3-2.8,2.8-2.8h93
		c1.6,0,2.8,1.3,2.8,2.8l0,0V26.1L99.4,26.1z"/>
	<path class="st1" d="M96.5,29.6h-93C1.6,29.6,0,28,0,26.1V3.5C0,1.6,1.6,0,3.5,0h93c1.9,0,3.5,1.6,3.5,3.5v22.6
		C100,28,98.4,29.6,96.5,29.6L96.5,29.6z"/>
	<path d="M99.4,26.1c0,1.6-1.3,2.8-2.8,2.8l0,0h-93c-1.6,0-2.8-1.3-2.8-2.8V3.5c0-1.6,1.3-2.8,2.8-2.8h93c1.6,0,2.8,1.3,2.8,2.8l0,0
		V26.1L99.4,26.1z"/>
	<path class="st0" d="M22.4,14.6c0-2.4,2-3.5,2-3.6c-1.1-1.6-2.9-1.9-3.5-1.9C19.4,8.9,18,10,17.3,10c-0.8,0-1.9-0.9-3.1-0.8
		c-1.6,0-3.1,0.9-3.9,2.4c-1.7,2.9-0.4,7.2,1.2,9.5c0.8,1.2,1.7,2.4,3,2.4c1.2,0,1.7-0.8,3.1-0.8s1.9,0.8,3.1,0.7
		c1.3,0,2.1-1.2,2.9-2.3c0.9-1.3,1.3-2.6,1.3-2.7C24.9,18.4,22.4,17.5,22.4,14.6L22.4,14.6z M20,7.6c0.6-0.8,1.1-1.9,1-3
		c-0.9,0-2.1,0.6-2.8,1.4c-0.6,0.7-1.1,1.8-1,2.9C18.2,9,19.3,8.4,20,7.6z"/>
	
		<linearGradient id="SVGID_1_" gradientUnits="userSpaceOnUse" x1="4.9037" y1="32.6167" x2="4.9037" y2="-3.4283" gradientTransform="matrix(47.4972 0 0 47.459 -159.5635 -1518.2753)">
		<stop  offset="0" style="stop-color:#1A1A1A;stop-opacity:0.1"/>
		<stop  offset="0.123" style="stop-color:#212121;stop-opacity:0.151"/>
		<stop  offset="0.308" style="stop-color:#353535;stop-opacity:0.227"/>
		<stop  offset="0.532" style="stop-color:#575757;stop-opacity:0.318"/>
		<stop  offset="0.783" style="stop-color:#858585;stop-opacity:0.421"/>
		<stop  offset="1" style="stop-color:#B3B3B3;stop-opacity:0.51"/>
	</linearGradient>
	<path class="st2" d="M96.5,0H46.7l19.5,29.6h30.3c1.9,0,3.5-1.6,3.5-3.5V3.5C100,1.5,98.5,0,96.5,0z"/>
	<g>
		<path class="st0" d="M39.8,23.3h-1.7l-0.9-2.9H34l-0.9,2.9h-1.6l3.2-9.9h2C36.6,13.5,39.8,23.3,39.8,23.3z M36.9,19.2l-0.8-2.6
			c-0.1-0.3-0.3-0.9-0.5-1.9l0,0c-0.1,0.4-0.3,1-0.5,1.9l-0.8,2.6H36.9z M48,19.7c0,1.2-0.3,2.2-1,2.9c-0.6,0.6-1.3,0.9-2.2,0.9
			s-1.6-0.3-2-1v3.7h-1.6v-7.7c0-0.8,0-1.5-0.1-2.3h1.4l0.1,1.1l0,0c0.5-0.8,1.3-1.3,2.4-1.3c0.8,0,1.5,0.3,2.1,1
			C47.7,17.7,48,18.6,48,19.7z M46.4,19.7c0-0.7-0.2-1.3-0.5-1.7c-0.3-0.5-0.8-0.7-1.4-0.7c-0.4,0-0.7,0.1-1.1,0.4
			c-0.3,0.3-0.5,0.6-0.6,1c0,0.2-0.1,0.3-0.1,0.5v1.2c0,0.5,0.2,1,0.5,1.3c0.3,0.4,0.7,0.5,1.2,0.5c0.6,0,1.1-0.2,1.4-0.7
			C46.2,21.1,46.4,20.5,46.4,19.7z M56.1,19.7c0,1.2-0.3,2.2-1,2.9c-0.6,0.6-1.3,0.9-2.2,0.9s-1.6-0.3-2-1v3.7h-1.6v-7.7
			c0-0.8,0-1.5-0.1-2.3h1.4l0.1,1.1l0,0c0.5-0.8,1.3-1.3,2.4-1.3c0.8,0,1.5,0.3,2.1,1C55.9,17.7,56.1,18.6,56.1,19.7L56.1,19.7z
			 M54.5,19.7c0-0.7-0.2-1.3-0.5-1.7c-0.3-0.5-0.8-0.7-1.4-0.7c-0.4,0-0.7,0.1-1.1,0.4c-0.3,0.3-0.5,0.6-0.6,1
			c0,0.2-0.1,0.4-0.1,0.5v1.2c0,0.5,0.2,1,0.5,1.3c0.3,0.4,0.7,0.5,1.2,0.5c0.6,0,1.1-0.2,1.4-0.7C54.4,21.1,54.5,20.5,54.5,19.7z
			 M65.3,20.5c0,0.8-0.3,1.5-0.9,2c-0.6,0.6-1.5,0.9-2.7,0.9c-1.1,0-1.9-0.2-2.6-0.6l0.4-1.3c0.7,0.4,1.5,0.6,2.3,0.6
			c0.6,0,1.1-0.1,1.4-0.4c0.3-0.3,0.5-0.6,0.5-1.1c0-0.4-0.1-0.7-0.4-1s-0.7-0.5-1.4-0.8c-1.7-0.6-2.6-1.6-2.6-2.8
			c0-0.8,0.3-1.5,0.9-2c0.6-0.5,1.4-0.8,2.4-0.8c0.9,0,1.6,0.2,2.2,0.5L64.4,15c-0.6-0.3-1.2-0.5-1.9-0.5c-0.6,0-1,0.1-1.3,0.4
			c-0.3,0.2-0.4,0.5-0.4,0.9s0.2,0.7,0.5,1c0.3,0.2,0.7,0.5,1.4,0.8c0.8,0.3,1.5,0.7,1.9,1.2C65.1,19.3,65.3,19.9,65.3,20.5
			L65.3,20.5z M70.5,17.4h-1.7v3.4c0,0.9,0.3,1.3,0.9,1.3c0.3,0,0.5,0,0.7-0.1v1.2c-0.3,0.1-0.7,0.2-1.2,0.2c-0.6,0-1.1-0.2-1.5-0.6
			c-0.4-0.4-0.5-1-0.5-1.9v-3.6h-1v-1.2h1v-1.3l1.6-0.5v1.8h1.7V17.4L70.5,17.4z M78.4,19.7c0,1.1-0.3,2-0.9,2.7
			c-0.7,0.7-1.5,1.1-2.6,1.1c-1,0-1.9-0.3-2.5-1s-0.9-1.6-0.9-2.6c0-1.1,0.3-2,1-2.7c0.6-0.7,1.5-1.1,2.6-1.1c1,0,1.9,0.3,2.5,1
			C78.1,17.8,78.4,18.6,78.4,19.7z M76.7,19.7c0-0.7-0.1-1.2-0.4-1.7c-0.3-0.6-0.8-0.8-1.4-0.8s-1.1,0.3-1.4,0.8s-0.4,1-0.4,1.7
			s0.1,1.2,0.4,1.7c0.3,0.6,0.8,0.8,1.4,0.8s1.1-0.3,1.4-0.9C76.6,21,76.7,20.4,76.7,19.7L76.7,19.7z M83.5,17.6c-0.2,0-0.3,0-0.5,0
			c-0.6,0-1,0.2-1.3,0.6c-0.3,0.4-0.4,0.8-0.4,1.4v3.7h-1.6v-4.9c0-0.7,0-1.5,0-2.2h1.4l0.1,1.4l0,0c0.2-0.5,0.4-0.8,0.8-1.1
			c0.3-0.2,0.7-0.4,1.1-0.4c0.1,0,0.3,0,0.4,0V17.6L83.5,17.6z M90.6,19.4c0,0.2,0,0.5-0.1,0.7h-4.7c0,0.7,0.2,1.2,0.7,1.6
			c0.4,0.3,0.9,0.5,1.6,0.5s1.3-0.1,1.9-0.3l0.2,1.1c-0.7,0.3-1.5,0.4-2.4,0.4c-1.1,0-2-0.3-2.6-1c-0.6-0.6-0.9-1.5-0.9-2.6
			s0.3-2,0.9-2.7c0.6-0.8,1.4-1.1,2.5-1.1c1,0,1.8,0.4,2.3,1.1C90.4,17.8,90.6,18.5,90.6,19.4z M89.1,19c0-0.5-0.1-0.9-0.3-1.2
			c-0.3-0.4-0.7-0.7-1.3-0.7c-0.5,0-0.9,0.2-1.3,0.6c-0.3,0.3-0.4,0.8-0.5,1.2L89.1,19L89.1,19z"/>
	</g>
	<g>
		<path class="st0" d="M33.5,10c-0.4,0-0.8,0-1.1-0.1V5.1C32.8,5,33.3,5,33.7,5c1.8,0,2.6,0.9,2.6,2.3C36.4,9.1,35.4,10,33.5,10z
			 M33.8,5.7c-0.2,0-0.5,0-0.6,0.1v3.6c0.1,0,0.3,0,0.5,0c1.2,0,1.9-0.7,1.9-1.9C35.6,6.3,35,5.7,33.8,5.7z M39,10
			c-1,0-1.7-0.8-1.7-1.8c0-1.1,0.7-1.8,1.7-1.8s1.7,0.7,1.7,1.8C40.7,9.2,40,10,39,10z M39,6.9c-0.6,0-0.9,0.5-0.9,1.3
			c0,0.7,0.4,1.2,0.9,1.2s0.9-0.6,0.9-1.3C39.9,7.5,39.6,6.9,39,6.9L39,6.9z M46.6,6.4l-1.1,3.5h-0.7l-0.5-1.5
			C44.2,8,44.1,7.7,44,7.3l0,0c-0.1,0.4-0.2,0.8-0.3,1.1l-0.5,1.5h-0.7l-1-3.5h0.8l0.4,1.7c0.1,0.4,0.2,0.8,0.2,1.1l0,0
			c0.1-0.3,0.2-0.7,0.3-1.1l0.5-1.7h0.6L44.8,8c0.1,0.4,0.2,0.8,0.3,1.2l0,0c0.1-0.4,0.1-0.7,0.2-1.2l0.4-1.6
			C45.8,6.4,46.6,6.4,46.6,6.4z M50.6,9.9h-0.8v-2c0-0.6-0.2-0.9-0.7-0.9s-0.8,0.4-0.8,0.9V10h-0.8V7.5c0-0.3,0-0.6,0-1h0.7V7l0,0
			c0.2-0.4,0.6-0.6,1.1-0.6c0.7,0,1.2,0.6,1.2,1.5L50.6,9.9L50.6,9.9z M52.7,9.9h-0.8V4.8h0.8V9.9z M55.6,10c-1,0-1.7-0.8-1.7-1.8
			c0-1.1,0.7-1.8,1.7-1.8s1.7,0.7,1.7,1.8C57.3,9.2,56.6,10,55.6,10z M55.6,6.9c-0.6,0-0.9,0.5-0.9,1.3c0,0.7,0.4,1.2,0.9,1.2
			s0.9-0.6,0.9-1.3C56.5,7.5,56.1,6.9,55.6,6.9L55.6,6.9z M60.4,9.9l-0.1-0.4l0,0c-0.2,0.3-0.6,0.5-1,0.5c-0.6,0-1.1-0.4-1.1-1
			c0-0.9,0.7-1.3,2-1.3V7.6c0-0.5-0.2-0.7-0.7-0.7c-0.3,0-0.6,0.1-0.9,0.3l-0.2-0.5c0.3-0.2,0.7-0.3,1.2-0.3c0.9,0,1.4,0.5,1.4,1.4
			v1.3c0,0.4,0,0.6,0.1,0.8H60.4L60.4,9.9z M60.2,8.2c-0.9,0-1.3,0.2-1.3,0.7c0,0.4,0.2,0.5,0.5,0.5c0.4,0,0.8-0.3,0.8-0.7V8.2z
			 M64.8,9.9V9.3l0,0c-0.2,0.4-0.6,0.6-1.1,0.6c-0.8,0-1.5-0.7-1.5-1.8s0.6-1.9,1.5-1.9c0.5,0,0.8,0.2,1,0.5l0,0v-2h0.8v4.2
			c0,0.3,0,0.7,0,0.9L64.8,9.9L64.8,9.9z M64.7,7.9c0-0.5-0.3-0.9-0.8-0.9C63.3,7,63,7.5,63,8.2s0.4,1.2,0.9,1.2s0.8-0.4,0.8-0.9
			V7.9L64.7,7.9z M70.4,10c-1,0-1.7-0.8-1.7-1.8c0-1.1,0.7-1.8,1.7-1.8s1.7,0.7,1.7,1.8C72.1,9.2,71.4,10,70.4,10L70.4,10z
			 M70.4,6.9c-0.6,0-0.9,0.5-0.9,1.3c0,0.7,0.4,1.2,0.9,1.2s0.9-0.6,0.9-1.3C71.3,7.5,70.9,6.9,70.4,6.9L70.4,6.9z M76.3,9.9h-0.8
			v-2c0-0.6-0.2-0.9-0.7-0.9S74,7.4,74,7.9V10h-0.8V7.5c0-0.3,0-0.6,0-1h0.7V7l0,0c0.2-0.4,0.6-0.6,1.1-0.6c0.7,0,1.2,0.6,1.2,1.5v2
			H76.3z M81.5,7h-0.9v1.7c0,0.4,0.1,0.6,0.5,0.6c0.1,0,0.3,0,0.3,0v0.6C81.2,10,81,10,80.8,10c-0.6,0-1-0.3-1-1.2V7h-0.5V6.4h0.5
			V5.8l0.8-0.2v0.9h0.9L81.5,7L81.5,7z M85.6,9.9h-0.8v-2c0-0.6-0.2-0.9-0.7-0.9c-0.4,0-0.8,0.3-0.8,0.8v2.1h-0.8V4.8h0.8v2.1l0,0
			c0.2-0.4,0.6-0.6,1.1-0.6c0.7,0,1.2,0.6,1.2,1.5L85.6,9.9L85.6,9.9z M89.8,8.4h-2.3c0,0.7,0.5,1,1.1,1c0.3,0,0.7-0.1,0.9-0.2
			l0.1,0.5c-0.3,0.1-0.7,0.2-1.2,0.2c-1.1,0-1.7-0.7-1.7-1.8s0.7-1.9,1.7-1.9c0.9,0,1.5,0.7,1.5,1.7C89.9,8.1,89.9,8.2,89.8,8.4
			L89.8,8.4z M89.1,7.8c0-0.5-0.3-0.9-0.8-0.9c-0.4,0-0.8,0.4-0.8,0.9H89.1L89.1,7.8z"/>
	</g>
</g>
</svg>
